<?xml version="1.0" encoding="utf-8"?><svg xmlns="http://www.w3.org/2000/svg" xmlns:xlink="http://www.w3.org/1999/xlink"><symbol viewBox="0 0 32 32" id="fb" xmlns="http://www.w3.org/2000/svg"><path d="M32 32H0V0h32zm-15.21-6.516V16.01h2.798l.29-3.15h-3.09v-1.898c0-.907.087-1.284 1.394-1.284h1.8V6.19h-2.848c-3.36 0-4.163 1.57-4.163 4.426v2.243h-1.926v3.151h1.933v9.474h3.812" fill-rule="evenodd"/></symbol><symbol viewBox="0 0 32 32" id="ig" xmlns="http://www.w3.org/2000/svg"><path d="M32 32H0V0h32zm-9.603-7.924c.985 0 1.782-.8 1.78-1.784V9.739a1.777 1.777 0 0 0-1.78-1.775H9.827a1.777 1.777 0 0 0-1.78 1.775v12.553a1.78 1.78 0 0 0 1.78 1.784H22.4m-1.403-9.28c.82 3.177-1.578 6.274-4.859 6.274-3.28 0-5.68-3.097-4.858-6.273H9.87v6.914c0 .344.28.623.623.622h11.279a.621.621 0 0 0 .624-.622v-6.914H20.99m-4.85-1.642c4.162-.313 4.162 6.105 0 5.792-3.86-.001-3.86-5.794 0-5.792m3.773-3.376h1.902a.62.62 0 0 1 .623.623v1.896a.62.62 0 0 1-.623.622h-1.902a.621.621 0 0 1-.623-.622v-1.896c0-.345.279-.624.623-.623" fill-rule="evenodd"/></symbol><symbol viewBox="0 0 32 32" id="tw" xmlns="http://www.w3.org/2000/svg"><path d="M32 0v32H0V0zm-6.68 11.024a7.476 7.476 0 0 1-2.133.58 3.735 3.735 0 0 0 1.632-2.059c-.73.433-1.527.74-2.359.908-2.6-2.768-7.188-.314-6.33 3.385a10.52 10.52 0 0 1-7.655-3.885 3.727 3.727 0 0 0 1.15 4.966 3.753 3.753 0 0 1-1.683-.47v.052a3.723 3.723 0 0 0 2.98 3.64 3.91 3.91 0 0 1-.98.133 3.939 3.939 0 0 1-.698-.071 3.715 3.715 0 0 0 3.467 2.58 7.434 7.434 0 0 1-4.613 1.59 8.458 8.458 0 0 1-.886-.05c7.033 4.513 16.274-.546 16.26-8.903 0-.163 0-.316-.01-.48a7.475 7.475 0 0 0 1.859-1.916z" fill-rule="evenodd"/></symbol><symbol viewBox="0 0 32 32" id="vk" xmlns="http://www.w3.org/2000/svg"><path d="M32 32H0V0h32zm-9.913-13.39a3.161 3.161 0 0 0-.772-2.243 3.773 3.773 0 0 0-2.056-1.111v-.072a2.938 2.938 0 0 0 1.398-1.162 3.27 3.27 0 0 0 .51-1.805 3.195 3.195 0 0 0-.369-1.55 2.651 2.651 0 0 0-1.113-1.071 4.611 4.611 0 0 0-1.474-.49 18.349 18.349 0 0 0-2.314-.112h-4.895v13.859h5.546c.8.02 1.6-.066 2.378-.255a4.877 4.877 0 0 0 1.719-.877c.443-.347.803-.79 1.052-1.295a3.986 3.986 0 0 0 .391-1.815m-4.46-5.7a1.547 1.547 0 0 0-.172-.684 1.02 1.02 0 0 0-.537-.51 2.153 2.153 0 0 0-.816-.173c-.314 0-.781-.01-1.401-.01h-.242v2.936h.439c.594 0 1.013-.01 1.252-.02.257-.018.508-.084.741-.194.25-.107.453-.298.574-.54.11-.254.165-.529.16-.806m.875 5.64a1.704 1.704 0 0 0-.26-1.01 1.563 1.563 0 0 0-.782-.55 2.71 2.71 0 0 0-.87-.133c-.369-.01-.865-.01-1.484-.01h-.643v3.467h.188c.905 0 1.53-.01 1.878-.02a2.924 2.924 0 0 0 1.062-.246c.292-.117.536-.329.693-.601.148-.276.223-.585.218-.898" fill-rule="evenodd"/></symbol></svg>