<svg width="58" height="58" fill="none" xmlns="http://www.w3.org/2000/svg"><circle cx="29" cy="29" r="28" stroke="#E63B30" stroke-width="2"/><path d="M41.58 15.938H15.44c-.291 0-.485.193-.485.484v14.531c0 .29.194.485.484.485h26.14c.291 0 .485-.194.485-.485V16.422c0-.29-.194-.485-.484-.485zm-.484 14.53H15.924V16.907h25.172V30.47zM42.547 14H14.47c-.823 0-1.452.63-1.452 1.453v18.89c0 .824.63 1.454 1.452 1.454h28.077c.823 0 1.452-.63 1.452-1.453v-18.89C44 14.63 43.37 14 42.548 14zm.484 20.344c0 .29-.194.484-.484.484H14.47c-.29 0-.484-.194-.484-.484v-18.89c0-.292.194-.485.484-.485h28.077c.29 0 .484.194.484.484v18.89zm-1.936-1.211a.745.745 0 01-.727.726.745.745 0 01-.726-.726c0-.388.34-.727.726-.727.388 0 .727.34.727.727zm-2.42.242c0 .29-.195.484-.485.484h-4.357c-.29 0-.484-.193-.484-.484 0-.29.194-.484.484-.484h4.357c.29 0 .484.193.484.484zM20.28 21.75c0-.29.194-.484.484-.484H30.93c.29 0 .484.193.484.484 0 .29-.194.484-.484.484H20.764c-.29 0-.484-.193-.484-.484zm12.102 0c0-.29.194-.484.484-.484h4.357c.29 0 .484.193.484.484 0 .29-.194.484-.484.484h-4.357c-.29 0-.484-.193-.484-.484zM20.28 23.688c0-.291.194-.485.484-.485h3.873c.29 0 .484.194.484.485 0 .29-.194.484-.484.484h-3.873c-.29 0-.484-.194-.484-.485zm6.293-.485h5.325c.29 0 .484.194.484.485 0 .29-.194.484-.484.484h-5.325c-.29 0-.484-.194-.484-.485 0-.29.194-.484.484-.484zm-6.293 2.422c0-.29.194-.484.484-.484h5.81c.29 0 .483.193.483.484 0 .29-.193.484-.484.484h-5.809c-.29 0-.484-.193-.484-.484zm20.816 15.016a2.398 2.398 0 00-2.42-2.422h-.969c-.823 0-1.452-.63-1.452-1.453 0-.291-.194-.485-.484-.485s-.484.194-.484.485a2.398 2.398 0 002.42 2.422h.968c.823 0 1.452.63 1.452 1.453a2.914 2.914 0 00-2.904 2.906c0 .823.63 1.453 1.452 1.453h3.873C43.37 45 44 44.37 44 43.547a2.914 2.914 0 00-2.904-2.906zm1.452 3.39h-3.873c-.29 0-.484-.194-.484-.484 0-1.066.871-1.938 1.936-1.938h.968c1.066 0 1.937.872 1.937 1.938 0 .29-.194.484-.484.484zm-7.261-3.875c0 .29-.194.485-.484.485H22.217c-.291 0-.485-.194-.485-.485 0-.29.194-.484.485-.484h.484a2.914 2.914 0 002.904-2.906c0-.291.194-.485.484-.485s.484.194.484.485c0 1.162-.532 2.18-1.307 2.906h6.487a3.816 3.816 0 01-1.307-2.906c0-.291.193-.485.484-.485.29 0 .484.194.484.485a2.914 2.914 0 002.904 2.906h.485c.29 0 .484.194.484.484zm-1.453 2.325a.521.521 0 00-.484-.387H13.987a.471.471 0 00-.484.387l-.484 1.938c-.048.145 0 .29.097.436a.55.55 0 00.387.145h20.331a.44.44 0 00.388-.194.465.465 0 00.096-.436l-.484-1.889zm-19.702 1.55l.242-.968h18.589l.242.968H14.132z" fill="#E63B30"/></svg>