<svg width="80" height="80" fill="none" xmlns="http://www.w3.org/2000/svg"><path d="M41.105 18.52l.778 5.86c.037.282.075.557.113.838.043.308.092.562.292.816.173.226.416.41.702.486.464.118.923.253 1.377.416.227.08.449.172.675.259.184.07-.21-.098-.037-.017.08.038.156.07.237.108.135.065.276.13.41.195.417.205.827.432 1.221.68.179.114.357.227.535.346l.324.227c.038.027.308.19.308.227 0-.005-.254-.2-.027-.022l.162.13a17.228 17.228 0 01.88.778c.384.362.746.745 1.086 1.15.081.097.162.19.238.286.032.044.092.098.119.146-.14-.259-.081-.108-.022-.032.124.167.248.335.367.508.281.405.54.831.783 1.263.238.432.449.87.649 1.324.059.14-.087-.222-.022-.043l.097.248a14.831 14.831 0 01.832 3.208l.016.114c-.06-.422-.027-.19-.016-.087.113.983.13 1.972.054 2.955-.016.232-.043.464-.07.697-.022.183.043-.287.016-.125a1.56 1.56 0 00-.022.157c-.016.113-.037.227-.054.34a14.636 14.636 0 01-.805 2.841c-.016.038-.032.076-.043.114-.005.021-.016.037-.021.059-.054.124-.033.081.054-.13-.06.033-.135.303-.168.373-.102.227-.21.448-.33.67a14.85 14.85 0 01-.912 1.517c-.086.125-.167.244-.26.368-.037.048-.07.097-.107.146-.027.037-.054.07-.081.108-.06.08-.038.048.075-.098-.043.114-.205.254-.28.346l-.292.34c-.2.227-.33.47-.373.778-.043.324.033.556.162.859.621 1.464 1.242 2.927 1.858 4.391l.265.621c-.06-.227-.124-.453-.184-.68v1.793c0 .54.34 1.026.832 1.231.54.227 1.037.07 1.474-.28a20.775 20.775 0 002.015-1.82 21.114 21.114 0 001.431-1.632c.044-.054.087-.113.13-.167.081-.103.162-.21.243-.314-.049.06-.097.125-.146.184a23.361 23.361 0 003.084-5.32 22.31 22.31 0 001.54-11.137c-.39-3.252-1.42-6.395-3.133-9.204a23.132 23.132 0 00-6.557-6.93 22.179 22.179 0 00-8.669-3.597 31.61 31.61 0 00-1.437-.216c-.318-.043-.74.178-.956.394-.248.233-.426.616-.41.956.016.352.13.713.394.956.281.26.578.346.956.395.222.027-.119-.016-.135-.016.049.01.097.016.151.021.087.01.173.027.26.038a24.586 24.586 0 011.68.335c.729.178 1.447.394 2.154.643.173.059.346.124.514.194.08.032.156.065.237.092.054.021.405.167.178.07-.216-.092.05.022.108.049.087.037.179.08.265.118a21.767 21.767 0 013.36 1.917c.146.104.291.206.437.314.07.049.135.103.2.151.038.027.076.06.114.087a22.02 22.02 0 011.577 1.377 22.014 22.014 0 011.814 1.988l.179.227c.027.037.108.14-.017-.022-.14-.184-.005-.005.028.032a21.561 21.561 0 012.28 3.765l.226.497c.032.075.064.156.102.232-.183-.41-.021-.043.016.049a21.512 21.512 0 011.237 4.326c.033.184.06.373.087.556.005.049.01.098.021.152.006.021-.043-.324-.021-.173.016.113.027.227.043.34.043.378.076.756.097 1.14a20.85 20.85 0 010 2.598c-.027.486-.113.966-.135 1.453 0-.033.049-.324.01-.081-.005.048-.01.091-.02.14l-.05.324c-.037.243-.086.486-.134.73a20.2 20.2 0 01-.746 2.743c-.07.2-.14.4-.216.6-.08.216-.151.475-.27.675.016-.027.124-.292.033-.076-.017.043-.038.081-.054.124-.044.098-.087.195-.13.287-.103.216-.205.437-.313.648a21.28 21.28 0 01-1.415 2.42c-.114.167-.233.334-.352.502l-.194.264c-.027.038-.06.082-.086.12-.06.08-.038.048.07-.093l-.21.276c.02-.027.248-.313.07-.092l-.125.157c-.07.086-.14.173-.21.254a22 22 0 01-2.171 2.258c-.314.28-.638.556-.973.82l2.306.956v-1.61c0-.323-.07-.604-.2-.907-.059-.135-.113-.27-.172-.405l-1.486-3.51c-.15-.352-.297-.708-.448-1.06l-.21 1.637c2.857-3.256 4.401-7.518 4.11-11.86-.292-4.294-2.274-8.41-5.547-11.23-1.934-1.663-4.213-2.878-6.687-3.505.33.432.659.87.994 1.302l-.778-5.86-.113-.838c-.049-.372-.12-.675-.395-.956-.232-.232-.62-.41-.956-.394-.35.016-.713.13-.956.394-.21.233-.432.6-.383.945zM17.053 39.666c.006 2.717.481 5.455 1.459 7.994a23.335 23.335 0 001.798 3.716c.319.524.66 1.032 1.016 1.528l.291.395.211.275c-.178-.232-.189-.248-.038-.048a24.63 24.63 0 00.832 1.02 20.882 20.882 0 002.884 2.771c.443.346.924.513 1.475.281a1.35 1.35 0 00.832-1.231v-1.794c-.06.227-.125.454-.184.68.621-1.463 1.242-2.926 1.858-4.39.086-.206.178-.416.265-.621.124-.292.205-.54.162-.86-.044-.307-.168-.54-.373-.777a16.09 16.09 0 01-.486-.578c-.032-.038-.162-.189-.032-.038.13.146 0 0-.033-.043-.081-.108-.162-.216-.238-.324a15.003 15.003 0 01-1.501-2.641c-.022-.054-.114-.265-.022-.043.087.2.022.06.006.005-.038-.092-.076-.184-.108-.275a15.282 15.282 0 01-.761-2.738l-.05-.309-.016-.124c-.038-.254.043.357.006.049a15.649 15.649 0 01-.017-3.608c.038-.335-.043.264 0 0l.05-.33c.075-.459.172-.912.29-1.36.12-.45.26-.897.417-1.335.032-.086.064-.178.097-.265.027-.064.054-.13.08-.2.066-.178-.08.184-.02.044.102-.238.21-.47.323-.702.422-.854.924-1.658 1.497-2.425.053-.07.08-.173-.05.059.028-.049.082-.103.12-.146a6.07 6.07 0 01.237-.286c.179-.21.368-.422.562-.621.346-.368.713-.713 1.096-1.043.13-.113.26-.221.395-.33.054-.042.108-.091.162-.129-.092.06-.151.114-.022.022.222-.162.448-.324.68-.48.422-.276.854-.536 1.297-.768.27-.146.551-.28.832-.405.054-.022.135-.076.189-.081-.043.016-.087.038-.13.054.049-.022.097-.038.146-.06l.373-.145a14.919 14.919 0 011.582-.492c.287-.07.524-.259.702-.486.2-.26.249-.497.292-.815l.778-5.86.113-.838c.087-.664-.691-1.437-1.35-1.35-2.242.291-4.37.87-6.444 1.766-1.922.837-3.694 1.966-5.314 3.295-3.246 2.668-5.682 6.27-7.022 10.246-.805 2.311-1.188 4.764-1.194 7.194 0 .708.622 1.383 1.35 1.35.735-.032 1.351-.594 1.351-1.35a21.987 21.987 0 01.124-2.295c.011-.125.027-.249.044-.379.005-.043.037-.296.005-.043-.032.265.01-.07.016-.118a21.114 21.114 0 011.118-4.3c.087-.227.178-.453.27-.68l-.048.118c.032-.064.059-.135.086-.2a6.12 6.12 0 01.151-.329c.416-.896.891-1.771 1.426-2.603.26-.405.535-.8.821-1.189.07-.097.146-.189.216-.286-.005.011-.21.27-.08.103.037-.049.075-.092.113-.14.156-.195.318-.39.48-.584a21.716 21.716 0 012.037-2.074 20.566 20.566 0 01.799-.67c.038-.032.075-.06.113-.091.038-.027.292-.227.092-.07-.194.15.13-.098.178-.136.087-.065.173-.13.26-.189.216-.156.432-.302.653-.453a21.382 21.382 0 013.273-1.788c.054-.022.114-.049.168-.07-.384.178-.135.059-.054.021l.405-.162a21.277 21.277 0 013.98-1.107c.146-.027.297-.049.443-.07.049-.006.098-.017.152-.022.372-.054-.233.027.016-.005l-1.35-1.35-.778 5.86-.114.837c.33-.432.66-.87.994-1.302-4.3 1.086-8.058 3.975-10.219 7.848-2.074 3.721-2.603 8.226-1.442 12.326.675 2.387 1.907 4.558 3.538 6.416l-.21-1.637c-.384.902-.762 1.804-1.146 2.706-.243.568-.48 1.135-.724 1.702-.178.421-.426.886-.443 1.34-.021.577 0 1.16 0 1.744.767-.319 1.54-.637 2.307-.956a21.355 21.355 0 01-3.322-3.295c-.054-.065-.103-.13-.157-.2-.086-.113-.086-.113 0 .006.135.178.092.119-.146-.184.244.313-.08-.113-.134-.189l-.217-.297a22.175 22.175 0 01-1.485-2.441c-.13-.254-.26-.508-.378-.767-.065-.135-.124-.276-.189-.41-.032-.071-.097-.174-.108-.25l.065.157c-.022-.054-.049-.113-.07-.167a21.219 21.219 0 01-1.308-4.667 2.152 2.152 0 01-.027-.183c-.01-.06-.016-.125-.026-.184-.022-.151-.017-.124.01.081-.054-.13-.037-.324-.054-.464a21.354 21.354 0 01-.119-2.274c0-.708-.62-1.383-1.35-1.35-.734.043-1.356.599-1.356 1.355z" fill="#fff"/><circle cx="40" cy="40" r="40" fill="#E63B30"/><path d="M53.274 39.666a14.46 14.46 0 01-.108 1.782c-.006.06-.016.114-.022.173.032-.221.038-.264.016-.135-.027.162-.048.33-.08.492a15.031 15.031 0 01-.687 2.511c-.06.157-.118.314-.183.47-.054.124-.033.081.054-.13a836.449 836.449 0 00-.21.475c-.19.406-.4.8-.622 1.19-.238.41-.497.81-.778 1.193-.07.097-.14.194-.21.286-.087.114-.07.097.048-.06-.038.05-.075.092-.113.141-.151.184-.303.367-.46.546l2.123.275-1.41-3.333c-.75-1.771-1.501-3.543-2.252-5.32-.173-.41-.345-.82-.524-1.231-.178-.421-.74-.67-1.166-.67h-2.63l1.35 1.35c0-1.226.194-2.64-.805-3.564-.54-.503-1.215-.708-1.94-.708h-5.697c-.395 0-.794 0-1.173.14a2.645 2.645 0 00-1.614 1.615c-.125.335-.14.692-.14 1.043v1.469l1.35-1.35h-2.63c-.428 0-.99.248-1.168.67l-1.41 3.332-2.252 5.32c-.172.41-.345.821-.524 1.232l2.123-.276c-.167-.189-.33-.383-.486-.578-.032-.038-.162-.189-.032-.038.13.146 0 0-.033-.043-.08-.108-.162-.216-.237-.324a15.02 15.02 0 01-1.502-2.641c-.021-.054-.113-.265-.021-.043.086.2.021.06.005.005a5.703 5.703 0 01-.108-.275c-.092-.238-.173-.476-.254-.713a15.25 15.25 0 01-.508-2.026l-.048-.308a7.48 7.48 0 01-.017-.124c-.037-.254.044.357.006.049a15.649 15.649 0 01-.016-3.608c.038-.335-.044.264 0 0l.048-.33c.076-.459.173-.912.292-1.36.119-.449.26-.897.416-1.335l.097-.264c.027-.065.054-.13.081-.2.065-.179-.081.183-.022.043a15.588 15.588 0 011.82-3.127c.055-.07.082-.173-.048.059.027-.049.081-.103.119-.146a6.07 6.07 0 01.238-.286c.178-.21.367-.421.561-.621.346-.367.713-.713 1.097-1.043.13-.113.259-.221.394-.33.054-.042.108-.09.162-.129-.092.06-.151.114-.022.022.222-.162.449-.324.68-.48.422-.276.854-.536 1.297-.768.27-.146.551-.28.832-.405.054-.021.135-.076.189-.08-.043.015-.086.037-.13.053.049-.021.098-.038.146-.06l.373-.145a14.889 14.889 0 011.582-.492l-1.706-1.301c-.049.35-.097.707-.14 1.058-.13 1.032.626 2.069 1.63 2.312.605.146 1.291.07 1.907.07 1.496 0 2.998.049 4.494 0 1.199-.038 2.317-1.042 2.193-2.311-.038-.379-.103-.757-.151-1.13L43 26.504c.61.157 1.215.346 1.804.578.065.027.13.054.2.081.329.13-.26-.118.059.027.157.07.313.14.47.216.297.146.589.297.875.46.53.302 1.037.631 1.528.993.017.011.114.076.114.087-.038-.027-.076-.06-.108-.087l.162.13c.135.108.265.216.394.33.26.22.513.453.756.696.232.232.46.47.68.713.114.13.228.265.341.394.038.049.081.098.119.146.038.049.075.097.119.146-.114-.146-.13-.167-.049-.06.362.487.702.989 1.005 1.513.302.524.62 1.075.826 1.647-.113-.313.054.14.087.227.043.119.091.238.13.362.113.319.21.643.302.967a15.678 15.678 0 01.367 1.723c.021.086.021.194.032.286.022.19.038.373.049.562 0 .346.01.686.01 1.026.006.708.622 1.383 1.351 1.35.73-.032 1.356-.594 1.35-1.35a16.382 16.382 0 00-2.009-7.826 16.404 16.404 0 00-5.806-6.06 16.12 16.12 0 00-4.462-1.87 1.339 1.339 0 00-1.177.244c-.303.232-.589.653-.535 1.058l.13.994c.005.044.016.092.016.135 0-.016.016.162.005.151.011-.07.022-.145.027-.216-.037.136-.016.092.065-.124-.124.227.238-.216.044-.048.054-.043.108-.081.167-.125-.119.07-.076.06.135-.037-.254.07.346.01.06 0-.498-.011-.994 0-1.491 0-1.432 0-2.863.016-4.294 0h-.065c-.146-.006-.103 0 .14.021-.135-.043-.091-.027.125.054-.233-.113.232.216.059.033.135.183.162.216.092.097.08.216.102.26.065.124.091.389.027.157.043.016.043-.362.097-.723.146-1.085.054-.405-.233-.827-.535-1.059a1.335 1.335 0 00-1.177-.243c-4.3 1.086-8.059 3.975-10.22 7.848-2.074 3.721-2.603 8.226-1.442 12.325.676 2.388 1.907 4.559 3.538 6.417.524.594 1.788.508 2.123-.276l1.41-3.332c.75-1.772 1.501-3.543 2.252-5.32.173-.41.346-.821.524-1.232-.39.222-.778.449-1.167.67h2.63c.73 0 1.35-.621 1.35-1.35v-1.183c0-.167.006-.335 0-.497 0-.027.011-.065 0-.086.066.221-.064.28-.016.14a.776.776 0 00.044-.135c0-.022-.114.297-.065.162.021-.06.13-.173-.01-.01-.147.167-.033.043.005.005.13-.135.075.032-.087.054.027-.006.065-.044.092-.054.146-.076-.286.065-.13.048.027 0 .076-.021.103-.032.194-.07-.108.027-.14.016.026.01.07-.005.102 0H41.105c.578 0 1.183.049 1.76 0 .163-.016-.286-.092-.14-.022.027.011.146.05.173.05.022 0-.297-.114-.162-.066.2.076-.027.011-.07-.075.01.021.086.08.103.097.167.146-.146-.21-.065-.081.016.021.032.075.054.092-.135-.108-.092-.276-.049-.092.07.297.005-.265-.005-.032v1.695c0 .73.62 1.35 1.35 1.35h2.63c-.389-.22-.777-.448-1.166-.669l1.41 3.332 2.252 5.32c.172.411.345.822.524 1.232.329.783 1.598.87 2.122.276 2.01-2.29 3.435-5.1 3.91-8.124.141-.896.233-1.804.233-2.711 0-.708-.621-1.383-1.35-1.35-.73.053-1.34.61-1.345 1.366z" fill="#fff"/><path d="M42.66 25.953c-1.939 0-3.883.027-5.822 0-.038 0-.081-.011-.119-.006.07.006.14.016.216.022-.135-.044-.092-.027.124.054-.08-.038-.167-.162.103.086-.151-.135.065.092.081.108-.065-.124-.049-.08.049.13-.027-.103-.027-.092-.006.038.033.243.017.005.022-.055a7.48 7.48 0 01.016-.124l.065-.48c.038-.265.07-.535.108-.8.151-1.145.302-2.29.459-3.435.13-.994.265-1.982.394-2.976L37 19.865c1.81-.226 3.64-.226 5.455 0l-1.35-1.35c.297 2.225.594 4.45.886 6.681.038.265.07.53.108.794.021.146.032.292.054.432.038.254.065-.259.021-.108-.027.103-.005.049.076-.156-.07.118-.038.086.092-.098-.178.184.286-.145.06-.032.215-.08.258-.097.123-.054.233-.021.281-.027.135-.021-.702.032-1.382.599-1.35 1.35.032.707.594 1.383 1.35 1.35 1.167-.049 2.188-.945 2.193-2.155 0-.34-.075-.686-.124-1.02l-.13-.973-.615-4.645c-.06-.448-.12-.891-.178-1.34-.05-.356-.114-.696-.395-.956-.28-.259-.578-.35-.956-.394a21.954 21.954 0 00-5.455 0c-.356.043-.697.119-.956.394-.26.281-.346.578-.394.956-.281 2.096-.557 4.197-.837 6.293-.033.254-.065.508-.103.761-.032.26-.081.513-.103.773-.08.89.503 1.771 1.313 2.112.497.21.977.194 1.501.194h5.239c.708 0 1.383-.621 1.35-1.35-.032-.73-.593-1.35-1.35-1.35zM52.998 53.218H29.73c-1.075 0-2.155-.033-3.23 0h-.049c.39.675.778 1.355 1.167 2.03.735-1.733 1.47-3.462 2.198-5.195 1.01-2.388 2.026-4.78 3.036-7.168.356-.842.713-1.69 1.075-2.533-.39.222-.778.448-1.167.67h2.63l-1.35-1.35v.583c0 .729.621 1.35 1.35 1.35h8.669c.73 0 1.35-.621 1.35-1.35v-.584c-.448.449-.901.903-1.35 1.35h2.63c-.388-.22-.777-.447-1.166-.669l2.641 6.244c.713 1.68 1.426 3.365 2.14 5.045.507 1.204 1.02 2.408 1.528 3.613.124.286.518.54.804.621.325.087.757.049 1.043-.135.286-.184.54-.465.621-.805.086-.378.016-.686-.135-1.042-.735-1.734-1.47-3.462-2.198-5.196-1.01-2.388-2.026-4.78-3.036-7.168-.356-.842-.713-1.69-1.075-2.533-.178-.42-.74-.67-1.166-.67h-2.63c-.73 0-1.35.622-1.35 1.35v.584l1.35-1.35h-8.67l1.35 1.35v-.583c0-.73-.62-1.35-1.35-1.35h-2.63c-.427 0-.988.248-1.167.67-.88 2.079-1.76 4.158-2.64 6.243-.714 1.68-1.427 3.365-2.14 5.045-.507 1.204-1.02 2.409-1.528 3.613-.195.46-.27.908 0 1.361.238.41.691.67 1.166.67H49.72c1.075 0 2.155.022 3.23 0h.048c.708 0 1.383-.621 1.35-1.35-.032-.746-.593-1.361-1.35-1.361z" fill="#fff"/><path d="M51.648 54.568V61.498l1.35-1.35H29.73c-1.075 0-2.155-.033-3.23 0h-.049l1.35 1.35v-6.071-.86c-.447.45-.901.903-1.35 1.351H49.72c1.075 0 2.155.022 3.23 0h.048c.708 0 1.383-.62 1.35-1.35-.032-.73-.593-1.35-1.35-1.35H29.73c-1.075 0-2.155-.022-3.23 0h-.049c-.729 0-1.35.62-1.35 1.35V61.498c0 .729.621 1.35 1.35 1.35H49.72c1.075 0 2.155.022 3.23 0h.048c.73 0 1.35-.621 1.35-1.35v-6.071-.86c0-.707-.62-1.382-1.35-1.35-.729.033-1.35.59-1.35 1.35zM42.709 37.97v2.28l1.35-1.35H35.39c.449.447.902.901 1.35 1.35v-2.145-.124-.016c-.01-.21-.01.113-.026.14.016-.027.027-.102.032-.14.005-.044.065-.179-.016.027-.081.205-.027.054.01.005.093-.108-.129.14-.107.13.021-.011.054-.06.07-.076.189-.2-.216.119-.027.022.184-.098-.303.092-.032.01.275-.08-.27-.005-.027.006H42.822c.054 0 .19.022-.027-.01-.329-.055.308.118.006 0-.195-.077-.081-.033-.038-.006.157.092-.086-.06-.103-.092.011.021.06.054.076.07.173.168-.054-.022-.054-.086 0 .027.043.064.054.091.054.146-.07-.286-.049-.13a.672.672 0 00.038.141c.06.13-.021-.34-.016-.097.022.708.605 1.383 1.35 1.35.713-.032 1.372-.594 1.35-1.35-.032-1.166-.837-2.295-2.03-2.511a4.864 4.864 0 00-.924-.065h-5.369c-.178 0-.361-.006-.54 0-1.264.07-2.295.983-2.468 2.241-.06.46-.032.93-.032 1.388v1.221c0 .73.62 1.35 1.35 1.35h8.669c.729 0 1.35-.62 1.35-1.35v-2.28c0-.707-.621-1.382-1.35-1.35-.735.038-1.356.6-1.356 1.356z" fill="#fff"/></svg>