<svg width="80" height="80" fill="none" xmlns="http://www.w3.org/2000/svg"><circle cx="40" cy="40" r="40" fill="#E63B30"/><path d="M43.35 33.912l.646.065c.096.391.213.777.35 1.157l-.518.42a2.586 2.586 0 00-.362 3.626l1.63 1.991a2.586 2.586 0 003.625.362l.518-.42c.11.07.232.123.349.187l1.357-2.191a8.903 8.903 0 01-1.021-.646 1.293 1.293 0 00-1.584.038l-1.248 1.028-1.61-1.971 1.255-1.028a1.293 1.293 0 00.355-1.545 8.93 8.93 0 01-.724-2.392 1.293 1.293 0 00-1.15-1.092l-1.603-.149.123-1.293h-2.586l-.123 1.035a2.585 2.585 0 002.308 2.824l.013-.006zM67.15 28.534l-.646-.065a11.604 11.604 0 00-.35-1.157l.518-.42a2.585 2.585 0 00.362-3.626l-1.642-1.998a2.586 2.586 0 00-3.633-.387l-.517.42a11.516 11.516 0 00-1.06-.57l.065-.646a2.586 2.586 0 00-2.308-2.811l-2.586-.259a2.586 2.586 0 00-2.824 2.308l-.065.646a11.58 11.58 0 00-1.157.35l-.42-.518a2.586 2.586 0 00-3.627-.362l-1.965 1.642c-.39.322-.678.75-.827 1.235h3.394l1.053-.86.705.866h4.337a1.293 1.293 0 001.015-1.125l.149-1.61 2.553.246-.162 1.616a1.293 1.293 0 00.84 1.37 8.918 8.918 0 012.205 1.184 1.293 1.293 0 001.584-.04l1.247-1.027 1.629 1.978-1.254 1.028a1.293 1.293 0 00-.356 1.545c.353.76.596 1.564.724 2.391a1.292 1.292 0 001.151 1.093l1.61.161-.246 2.547-1.616-.161a1.293 1.293 0 00-1.377.808 8.925 8.925 0 01-1.183 2.204 1.293 1.293 0 00.039 1.583l1.028 1.248-1.978 1.629-1.028-1.254a1.293 1.293 0 00-.601-.407l-1.94 3.128c.388-.094.77-.209 1.145-.342l.42.517a2.586 2.586 0 003.626.362l1.991-1.63a2.585 2.585 0 00.362-3.625l-.42-.518c.208-.343.398-.697.569-1.06l.646.065a2.586 2.586 0 002.825-2.308l.258-2.585a2.586 2.586 0 00-2.307-2.825l.045.026z" fill="#fff"/><path d="M36.156 43.013v.647c-.378.146-.746.312-1.106.497l-.485-.433a2.547 2.547 0 00-3.057-.342l2.043 2.934.433.407a1.292 1.292 0 001.577.15 8.96 8.96 0 012.288-1.029 1.293 1.293 0 00.93-1.292l-.05-1.623 2.585-.084.051 1.63a1.293 1.293 0 001.009 1.22c.82.184 1.61.483 2.346.886a1.292 1.292 0 001.564-.245l.589-.647 1.751-2.818a2.586 2.586 0 00-3.109.491l-.459.491a11.5 11.5 0 00-1.137-.426v-.646a2.586 2.586 0 00-2.69-2.508l-2.585.077a2.586 2.586 0 00-2.488 2.663zM53.02 50.511l-1.455 2.347h.375l.084 2.585-1.629.052c-.187.008-.37.056-.536.142l-.575.931c-.059.097-.13.181-.194.272a8.948 8.948 0 01-.802 2.01 1.292 1.292 0 00.246 1.564l1.183 1.112-1.758 1.88-1.19-1.156a1.292 1.292 0 00-1.577-.149 8.96 8.96 0 01-2.288 1.028 1.293 1.293 0 00-.931 1.293l.052 1.622-2.586.084-.052-1.629a1.292 1.292 0 00-1.008-1.221 8.965 8.965 0 01-2.346-.886 1.292 1.292 0 00-1.565.246l-1.111 1.183-1.881-1.759 1.15-1.183a1.292 1.292 0 00.149-1.577 8.937 8.937 0 01-.873-1.797l-.918-1.293a1.294 1.294 0 00-.523-.097l-1.623.052-.084-2.585h.401l-1.59-2.32a2.586 2.586 0 00-1.403 2.384l.078 2.586a2.585 2.585 0 002.663 2.501h.646c.146.377.313.746.498 1.106l-.459.491a2.585 2.585 0 00.116 3.652l1.881 1.765a2.586 2.586 0 003.653-.11l.459-.491c.371.162.75.304 1.137.426v.647a2.585 2.585 0 002.586 2.501h.084l2.585-.077a2.585 2.585 0 002.502-2.663v-.647c.377-.146.746-.312 1.105-.498l.492.46a2.586 2.586 0 003.652-.117l1.764-1.881a2.586 2.586 0 00-.11-3.652l-.49-.46c.161-.37.304-.75.426-1.137h.646a2.585 2.585 0 002.527-2.708l-.077-2.586a2.586 2.586 0 00-1.506-2.243zM30.868 42.438a2.586 2.586 0 002.87-.647l1.752-1.887a2.585 2.585 0 00-.136-3.646l-.491-.459c.16-.371.3-.75.42-1.137h.646a2.584 2.584 0 002.515-2.676l-.071-1.94h-2.586l.071 2.03-1.622.058a1.293 1.293 0 00-1.215 1.028 8.934 8.934 0 01-.873 2.353 1.292 1.292 0 00.258 1.564l1.19 1.1-1.745 1.887-1.164-1.086a1.293 1.293 0 00-1.577-.143c-.173.108-.347.212-.524.31l2.282 3.29zM32.923 19.956a2.585 2.585 0 00-3.645.136l-.46.491c-.37-.16-.75-.3-1.137-.42v-.646a2.586 2.586 0 00-2.695-2.515L22.4 17.1a2.586 2.586 0 00-2.482 2.676v.647a11.51 11.51 0 00-1.105.504l-.491-.459a2.586 2.586 0 00-3.646.136l-1.72 1.92a2.585 2.585 0 00.136 3.645l.491.46c-.16.37-.3.75-.42 1.137h-.646a2.586 2.586 0 00-2.515 2.695l.097 2.586a2.586 2.586 0 002.676 2.482h.647c.148.377.317.746.504 1.105l-.459.492a2.586 2.586 0 00.136 3.645l1.887 1.752a2.585 2.585 0 003.646-.136l.459-.491c.371.16.751.3 1.138.42v.647a2.586 2.586 0 002.585 2.488h.142l-4.408-6.425c-.248.06-.474.193-.646.381l-1.1 1.19-1.887-1.745 1.047-1.164a1.293 1.293 0 00.142-1.577 8.908 8.908 0 01-.943-1.985 3.882 3.882 0 01-.207-.543 1.293 1.293 0 00-1.177-.646l-1.622.065-.097-2.586 1.623-.058a1.294 1.294 0 001.24-1.073 8.93 8.93 0 01.873-2.353 1.293 1.293 0 00-.258-1.564l-1.19-1.1 1.746-1.887 1.163 1.086a1.293 1.293 0 001.577.142 8.91 8.91 0 012.024-.917c.177-.083.36-.152.549-.207a1.292 1.292 0 00.646-1.177l-.064-1.622 2.585-.097.058 1.622a1.292 1.292 0 00.73 1.112h4.868l.44-.472.51.472h3.614a2.589 2.589 0 00-.472-.614l-1.9-1.752z" fill="#fff"/><path d="M22.756 24.934h-.065a6.464 6.464 0 00-4.757 7.756v.059a6.464 6.464 0 002.443 3.645l13.794 19.844a6.464 6.464 0 0010.966 2.651 6.464 6.464 0 001.645-3.381c.125-.092.232-.206.317-.336L58.482 36.82a6.465 6.465 0 003.232-5.598V31.151a6.465 6.465 0 00-7.822-6.243H25.548a6.464 6.464 0 00-2.792.026zm20.93 31.595a3.878 3.878 0 11-4.195-5.817 3.93 3.93 0 01.892-.097A3.878 3.878 0 0144.15 53.6c.24 1 .072 2.052-.465 2.928zM55.25 27.345a3.879 3.879 0 110 7.757 3.879 3.879 0 010-7.757zM30.506 29.69a6.42 6.42 0 00-1.008-2.198h20.484A6.465 6.465 0 0054.9 37.687l-8.7 14a6.463 6.463 0 00-11.325-.587 6.53 6.53 0 00-.479.956l-9.986-14.37a6.43 6.43 0 006.095-7.982v-.013zm-2.515.614a3.879 3.879 0 11-7.537 1.836 3.879 3.879 0 017.537-1.836z" fill="#fff"/></svg>