<svg id="Слой_1" data-name="Слой 1" xmlns="http://www.w3.org/2000/svg" xmlns:xlink="http://www.w3.org/1999/xlink" viewBox="0 0 57 57"><defs><style>.cls-1{fill:none;}.cls-2{clip-path:url(#clip-path);}.cls-3,.cls-4{fill:#e63b30;stroke:#e63b30;}.cls-3{stroke-miterlimit:10;}.cls-4{stroke-width:0.3px;}</style><clipPath id="clip-path"><rect class="cls-1" width="57" height="57"/></clipPath></defs><g class="cls-2"><path class="cls-3" d="M41.61,53.69h0a4.72,4.72,0,0,1-6.79-1.22L16.62,24.85a17,17,0,0,1-1.83-.19A10.89,10.89,0,0,1,6.3,11.85,11,11,0,0,1,11.19,5a12,12,0,0,1,3.59-1.62l1.2-.3L14.36,11,17,13.31l3.39-1.11L22,4.45l.95.62a10.52,10.52,0,0,1,4.51,11.18,10.29,10.29,0,0,1-1.78,4.08l17.52,26.6A4.77,4.77,0,0,1,41.61,53.69ZM12.05,6.29a9.57,9.57,0,0,0-4.23,5.88,9.33,9.33,0,0,0,7.28,11,17.48,17.48,0,0,0,2,.18h.4L36.11,51.62a3.21,3.21,0,0,0,4.65.78,3.23,3.23,0,0,0,1.18-4.61L23.79,20.24l.37-.44A8.67,8.67,0,0,0,26,15.94a9,9,0,0,0-2.9-8.87l-1.3,6.32-5.09,1.67-4-3.54,1.28-6.23A11.09,11.09,0,0,0,12.05,6.29Z"/><path class="cls-4" d="M39.22,50a1.32,1.32,0,0,0,.37-1.82A1.31,1.31,0,1,0,39.22,50Z"/></g></svg>