<svg width="58" height="58" fill="none" xmlns="http://www.w3.org/2000/svg"><path d="M40.24 35.857c0 1.033-.587 1.913-1.32 2.532-.732.617-1.656 1.07-2.743 1.446C34.003 40.587 31.16 41 28 41c-3.16 0-6.003-.413-8.177-1.165-1.087-.376-2.012-.829-2.744-1.447-.732-.617-1.319-1.498-1.319-2.53v-7.22l-5.935-2.29a1.269 1.269 0 01-.598-.47 1.3 1.3 0 010-1.469c.147-.215.356-.38.598-.47l17.727-6.858c.13-.05.269-.076.408-.08a1.25 1.25 0 01.488.08l17.727 6.857c.242.091.45.256.598.471a1.3 1.3 0 010 1.468 1.27 1.27 0 01-.598.472l-17.727 6.857a1.248 1.248 0 01-.896 0L18.5 29.632" stroke="#E63B30" stroke-width="2" stroke-linecap="round"/><circle cx="29" cy="29" r="28" stroke="#E63B30" stroke-width="2"/></svg>