<svg width="58" height="58" fill="none" xmlns="http://www.w3.org/2000/svg"><circle cx="29" cy="29" r="28" stroke="#E63B30" stroke-width="2"/><path d="M42.92 22.453a.32.32 0 11-.102.622l-.15-.05-.05-.15a.318.318 0 01.301-.422zM25.465 45.988l.14.07a.32.32 0 11-.282 0l.142-.07zm17.453-24.033a.816.816 0 00-.774 1.08L36.21 28.97h-7.751l-3.355 3.355v13.286a.818.818 0 10.725 0V32.626l2.93-2.93h7.75l6.15-6.149a.82.82 0 00.84-.196.818.818 0 00-.578-1.396z" fill="#E63B30"/><path d="M34.727 16.37a.32.32 0 01.141.605l-.14.07-.142-.07a.318.318 0 01-.178-.286.32.32 0 01.32-.32zM23.214 40.897l.141.07a.32.32 0 11-.282 0l.141-.07zM34.727 15.87a.818.818 0 00-.362 1.55v6.455l-2.322 2.24h-4.809l-4.382 4.382V40.52a.817.817 0 10.725 0v-9.722l3.957-3.958h4.802l2.754-2.656v-6.762a.817.817 0 00-.363-1.55zM14.818 24.29a.317.317 0 01.302.42l-.05.15-.15.05a.324.324 0 01-.328-.076.317.317 0 010-.451c.06-.06.14-.094.226-.094zm6.085 20.731l.14.07a.32.32 0 11-.282 0l.141-.07zm-6.085-21.23a.818.818 0 10.262 1.592l2.831 2.831v4.895l2.63 2.63v8.906a.817.817 0 10.724 0v-9.207l-2.629-2.629v-4.895l-3.044-3.044a.817.817 0 00-.774-1.08zM39.77 18.578a.32.32 0 11-.102.622l-.15-.05-.05-.15a.318.318 0 01.302-.422zm-4.556 7.819c.035 0 .07.005.103.017l.15.05.05.149a.318.318 0 11-.621.102c0-.085.033-.165.094-.225.06-.06.139-.093.224-.093zm4.556-8.318a.816.816 0 00-.775 1.08l-1.457 1.457v3.264l-2.061 2.06a.821.821 0 00-.84.196.818.818 0 101.353.317l2.273-2.273v-3.263l1.245-1.245a.822.822 0 00.84-.196.818.818 0 00-.578-1.397zM45.243 25.345a.32.32 0 01.141.605l-.141.07-.141-.07a.32.32 0 01.141-.605zm-2.686 5.947c.035 0 .07.005.104.017l.149.05.05.15a.319.319 0 11-.527-.125.312.312 0 01.224-.092zm2.686-6.446a.818.818 0 00-.362 1.55v2.38l-2.062 2.06a.822.822 0 00-.84.196.818.818 0 101.354.317l2.273-2.273v-2.68a.817.817 0 00-.363-1.55z" fill="#E63B30"/><path d="M19.135 18.002a.32.32 0 01.14.605l-.14.07-.141-.07a.32.32 0 01.141-.605zm1.631 13.83l.142.069a.32.32 0 11-.282 0l.14-.07zm-1.631-14.329a.818.818 0 00-.363 1.55v3.496l1.632 1.631v7.274a.817.817 0 10.725 0V23.88l-1.632-1.631v-3.195a.817.817 0 00-.362-1.55zM15.871 20.45a.32.32 0 01.141.605l-.14.07-.142-.07a.32.32 0 01.141-.605zm1.87 3.5c.086 0 .166.032.225.092a.32.32 0 01-.451.452.317.317 0 01-.076-.328l.05-.15.15-.05a.314.314 0 01.103-.017zm-1.87-4a.818.818 0 00-.362 1.551v1.048l1.457 1.457a.817.817 0 001.353.84.818.818 0 00-.84-1.353l-1.244-1.245v-.747a.817.817 0 00-.364-1.55zM22.398 16.37a.32.32 0 01.141.605l-.14.07-.142-.07a.32.32 0 01.141-.605zm8.157 6.525a.32.32 0 11-.286.46l-.07-.14.07-.142a.319.319 0 01.286-.178zm-8.157-7.024a.818.818 0 00-.362 1.55v1.864l4.292 4.292h3.495a.818.818 0 100-.725h-3.195l-3.867-3.867v-1.563a.817.817 0 00-.363-1.55z" fill="#E63B30"/><path d="M28.347 14.498c.085 0 .165.034.226.094a.317.317 0 010 .452.315.315 0 01-.328.076l-.15-.05-.05-.15a.318.318 0 01.302-.421zm3.024 5.133a.32.32 0 11-.286.46l-.07-.14.07-.141a.318.318 0 01.286-.179zM28.347 14a.816.816 0 00-.774 1.08l-2.424 2.423 2.81 2.81h2.68a.818.818 0 100-.725h-2.38l-2.084-2.085 1.91-1.91a.822.822 0 00.84-.197.818.818 0 00-.578-1.396z" fill="#E63B30"/><path d="M32.426 14.498a.32.32 0 11-.102.622l-.15-.05-.05-.15a.318.318 0 01.302-.421zm-2.108 2.108c.036 0 .07.005.104.017l.15.05.05.15a.319.319 0 11-.303-.217zM32.426 14a.815.815 0 00-.774 1.08l-1.071 1.07a.821.821 0 00-.84.196.818.818 0 101.353.317l1.071-1.07a.82.82 0 00.84-.197.818.818 0 00-.579-1.396zM22.977 22.657a.317.317 0 01.301.422l-.05.15-.149.05a.315.315 0 01-.328-.076.32.32 0 01.226-.546zm-.001 3.74c.035 0 .07.005.103.017l.15.05.05.149a.318.318 0 01-.527.328.32.32 0 010-.452c.059-.06.139-.092.224-.092zm0-4.238a.818.818 0 10.261 1.592l.43.429v1.332l-.429.429a.822.822 0 00-.84.195.818.818 0 101.354.317l.641-.641V23.88l-.641-.642a.817.817 0 00-.775-1.08zM42.217 27.553a.32.32 0 11-.102.622l-.15-.05-.05-.15a.318.318 0 01.302-.422zM30.56 31.869c.122 0 .232.069.286.179l.07.14-.07.142a.32.32 0 11-.286-.46zm11.658-4.815a.816.816 0 00-.774 1.08l-3.693 3.693h-6.458a.817.817 0 100 .725h6.758l3.906-3.905a.822.822 0 00.84-.196.818.818 0 00-.579-1.397zM14.818 28.369a.317.317 0 01.302.421l-.05.15-.15.05a.315.315 0 01-.328-.076.32.32 0 01.226-.545zm1.053 3.462l.141.07a.32.32 0 11-.282 0l.141-.07zm-1.053-3.96a.818.818 0 10.261 1.592l.43.429v1.562a.817.817 0 10.725 0v-1.863l-.642-.642a.817.817 0 00-.774-1.079z" fill="#E63B30"/></svg>