<svg width="80" height="80" fill="none" xmlns="http://www.w3.org/2000/svg"><circle cx="40" cy="40" r="40" fill="#E63B30"/><path d="M58.86 50.286c0 1.55-.88 2.87-1.979 3.797-1.098.927-2.484 1.605-4.115 2.17C49.505 57.38 45.24 58 40.5 58c-4.74 0-9.005-.62-12.266-1.748-1.63-.564-3.017-1.242-4.115-2.17-1.098-.926-1.978-2.246-1.978-3.796V39.458l-8.903-3.435a1.904 1.904 0 01-.898-.707 1.95 1.95 0 010-2.202c.221-.323.535-.57.898-.707l26.59-10.285c.196-.075.403-.115.613-.12.25-.01.498.031.732.12l26.589 10.285c.363.137.677.384.898.707a1.95 1.95 0 010 2.202c-.221.323-.535.57-.898.707l-26.59 10.285a1.872 1.872 0 01-1.345 0l-13.577-5.36" stroke="#fff" stroke-width="3" stroke-linecap="round"/></svg>