<svg width="50" height="50" fill="none" xmlns="http://www.w3.org/2000/svg"><path d="M48.839 21.325h-3.005v-2.823c2.46-1.189 4.16-3.69 4.16-6.584 0-4.045-3.316-7.334-7.393-7.334a7.394 7.394 0 00-6.394 3.667L9.654.356l-.16-.05L9.31.25c-.017-.006-.033 0-.05-.006A7.41 7.41 0 007.394 0C3.316 0 0 3.29 0 7.334a7.33 7.33 0 003.855 6.44 7.481 7.481 0 002.778.85l4.416 15.974v10.984H1.228c-.64 0-1.156.512-1.156 1.145v6.095c0 .633.517 1.145 1.156 1.145h28.246c.056.01.112.033.173.033h13.431c.062 0 .112-.028.173-.033h5.594c.638 0 1.155-.511 1.155-1.145v-6.095c0-.633-.517-1.145-1.155-1.145H25.847v-11.14a7.248 7.248 0 00-1.983-4.978v-.006l-9.555-12.301 21.737 2.134a7.39 7.39 0 003.01 3.072c.1.056.206.095.306.145v2.822h-3.005c-.639 0-1.155.511-1.155 1.145v2.294c0 .29.11.567.31.784l4.161 4.428c.223.239.528.367.845.367a1.142 1.142 0 001.155-1.145V23.62h1.85v5.579a1.142 1.142 0 001.155 1.144c.317 0 .623-.127.845-.366l4.16-4.429c.2-.216.311-.494.311-.783v-2.295c0-.628-.516-1.144-1.155-1.144zm-9.477 4.956l-1.85-1.967v-.695h1.85v2.662zM2.311 7.334c0-2.778 2.283-5.045 5.083-5.045 2.805 0 5.082 2.262 5.082 5.045 0 2.784-2.283 5.045-5.082 5.045A5.055 5.055 0 012.31 7.334zm21.22 23.108c0 2.778-2.283 5.045-5.083 5.045-.85 0-1.694-.21-2.433-.61a5.046 5.046 0 01-2.65-4.43c0-2.777 2.283-5.044 5.083-5.044 2.8-.006 5.083 2.256 5.083 5.04zm-5.089-7.334a7.404 7.404 0 00-6.16 3.284L8.993 14.496a7.39 7.39 0 002.572-1.106l7.572 9.757a5.687 5.687 0 00-.695-.039zm29.242 24.57h-45.3v-3.806h45.311v3.806h-.011zM13.36 41.582V35.76a7.43 7.43 0 001.544 1.122 7.49 7.49 0 003.544.894 7.386 7.386 0 005.083-2.022v5.828H13.36zm.544-30.764a7.24 7.24 0 00.889-3.478 7.256 7.256 0 00-.8-3.3l21.37 6.356a7.264 7.264 0 00-.095 2.511l-21.364-2.09zm23.609 1.1c0-2.778 2.283-5.045 5.082-5.045 2.806 0 5.083 2.261 5.083 5.045s-2.283 5.045-5.083 5.045a5.055 5.055 0 01-5.083-5.045zm4.16 9.407v-2.128a7.36 7.36 0 001.85-.006v2.134h-1.85zm6.01 2.989l-1.85 1.967v-2.662h1.85v.695z" fill="#E63B30"/></svg>