<svg width="55" height="51" fill="none" xmlns="http://www.w3.org/2000/svg"><path d="M16.677 31.895l.305.306a1.217 1.217 0 001.728 0 1.222 1.222 0 000-1.728l-.305-.306a1.222 1.222 0 10-1.728 1.728z" fill="#fff"/><path d="M41.59 30.333c.59.327 1.334.11 1.66-.481L54.847 8.788a1.223 1.223 0 00-.48-1.66l-9.46-5.215a1.22 1.22 0 00-1.66.48l-2.753 5a1.185 1.185 0 00-.247.447l-2.652 4.816c-.033.045-.067.088-.095.139-.026.048-.044.099-.063.15l-2.748 4.989c-.01.018-.024.032-.034.05-.01.018-.014.036-.023.054l-5.279 9.587L2.086.358A1.221 1.221 0 000 1.223v48.253c0 .675.548 1.223 1.222 1.223h48.253a1.223 1.223 0 00.864-2.087L39.105 37.378l2.56-4.65a1.222 1.222 0 10-2.141-1.18l-6.287 11.419-7.32-4.035 1.737-3.153c.168.08.346.126.523.126a1.218 1.218 0 00.648-2.253l1.68-3.05 2.182 1.197a1.22 1.22 0 001.66-.484 1.223 1.223 0 00-.484-1.66l-2.179-1.195 1.676-3.043 2.173 1.192a1.221 1.221 0 001.66-.484 1.223 1.223 0 00-.484-1.66l-2.17-1.19 1.676-3.043 2.164 1.187a1.22 1.22 0 001.66-.484 1.223 1.223 0 00-.485-1.66l-2.16-1.184 1.676-3.043 2.155 1.181a1.222 1.222 0 101.175-2.144l-2.15-1.179 1.675-3.043.578.317a1.221 1.221 0 101.175-2.144l-.574-.314L44.8 4.644l7.32 4.034-11.01 19.995a1.221 1.221 0 00.48 1.66zm-8.464 15.366a1.227 1.227 0 00.931.103c.311-.09.574-.3.73-.584l3.09-5.611 8.648 8.647H2.445v-2.482a1.215 1.215 0 001.113-1.103 1.218 1.218 0 001.211 1.113h2.134a1.223 1.223 0 000-2.445H4.77c-.637 0-1.155.49-1.211 1.113a1.214 1.214 0 00-1.114-1.102v-2.754H4.91a1.223 1.223 0 000-2.444H2.444v-2.744H4.91a1.223 1.223 0 000-2.445H2.444v-2.744H4.91a1.223 1.223 0 000-2.444H2.444v-2.744H4.91a1.223 1.223 0 000-2.445H2.444v-2.743h.822a1.223 1.223 0 000-2.445h-.822v-2.744H4.91a1.223 1.223 0 000-2.445H2.444V4.174l25.681 25.68-3.564 6.472-3.356-3.357a1.222 1.222 0 10-1.728 1.728l2.708 2.71h-8.893V28.51l1.194 1.196a1.223 1.223 0 001.73-1.728l-3.283-3.283a1.221 1.221 0 00-2.086.864v13.071c0 .675.548 1.222 1.222 1.222h11.052c.1.26.283.488.545.632l9.46 5.216z" fill="#fff"/><path d="M32.767 35.805l-1.362-.747a1.222 1.222 0 10-1.176 2.144l1.362.746a1.22 1.22 0 101.176-2.142zM45.82 12a1.22 1.22 0 101.174-2.144l-.872-.478a1.221 1.221 0 10-1.176 2.142l.873.48zM6.903 17.395H5.91a1.223 1.223 0 000 2.444h.994a1.223 1.223 0 000-2.444z" fill="#fff"/></svg>