<svg id="Слой_1" data-name="Слой 1" xmlns="http://www.w3.org/2000/svg" xmlns:xlink="http://www.w3.org/1999/xlink" viewBox="0 0 58 53"><defs><style>.cls-1{fill:#fff;}.cls-2{mask:url(#mask);}.cls-3{fill:none;stroke:#e63b30;stroke-width:4.8px;}</style><mask id="mask" x="-2.4" y="-2.4" width="62.8" height="57.8" maskUnits="userSpaceOnUse"><g id="path-1-inside-1"><path class="cls-1" d="M33.63,0H21.32a.82.82,0,0,0-.43.12.84.84,0,0,0-.31.31L12.06,15.06a.85.85,0,0,0-.08.64.84.84,0,0,0,.4.52l9.25,5.3a.89.89,0,0,0,.64.09.85.85,0,0,0,.52-.37l11.59-20a.88.88,0,0,0,.11-.42.82.82,0,0,0-.12-.43.84.84,0,0,0-.31-.31A.92.92,0,0,0,33.63,0Zm-1.7,19.21-.33.19a.79.79,0,0,0-.34.36.84.84,0,0,0-.07.49.76.76,0,0,0,.21.45.8.8,0,0,0,.43.26l9.91,2.33a.92.92,0,0,0,.63-.09.85.85,0,0,0,.39-.5L45.7,13a.82.82,0,0,0,0-.49.8.8,0,0,0-.28-.41.9.9,0,0,0-1-.08l-1.08.62L37.64,2.79a.77.77,0,0,0-.31-.31.82.82,0,0,0-.43-.12.79.79,0,0,0-.42.12.86.86,0,0,0-.32.31L30,13.37a.85.85,0,0,0-.11.42.88.88,0,0,0,.11.42L32.25,18a.87.87,0,0,1,.08.65.88.88,0,0,1-.4.51ZM51.72,48.8l6.16-10.57a.76.76,0,0,0,.12-.42.82.82,0,0,0-.12-.43L49.37,22.74a.82.82,0,0,0-.52-.39.87.87,0,0,0-.65.08L39,27.73a.88.88,0,0,0-.25.22.85.85,0,0,0-.15.3.91.91,0,0,0,0,.33.89.89,0,0,0,.11.31L50.24,48.8a.86.86,0,0,0,1.48,0Zm-15.9-11v-.39a.8.8,0,0,0-.15-.47.94.94,0,0,0-.39-.32,1,1,0,0,0-.5,0,.92.92,0,0,0-.44.25l-7,7.39a.85.85,0,0,0,0,1.16l7,7.41a.91.91,0,0,0,.44.24.86.86,0,0,0,.5,0,.85.85,0,0,0,.39-.31.83.83,0,0,0,.15-.48V50.9H47.28a.79.79,0,0,0,.42-.12.86.86,0,0,0,.32-.31.86.86,0,0,0,0-.84L41.86,39a.77.77,0,0,0-.31-.31.82.82,0,0,0-.43-.12H36.68a.86.86,0,0,1-.61-.25A.84.84,0,0,1,35.82,37.75ZM24.9,50.07V39.48a.86.86,0,0,0-.25-.61.88.88,0,0,0-.61-.25H.86a.92.92,0,0,0-.43.11,1,1,0,0,0-.32.32.85.85,0,0,0-.11.42.82.82,0,0,0,.12.43L6.27,50.49a.77.77,0,0,0,.31.31.82.82,0,0,0,.43.12H24a.87.87,0,0,0,.86-.85ZM1.25,36.33H13.59a.83.83,0,0,0,.74-.42l2.22-3.82a.89.89,0,0,1,.21-.26.87.87,0,0,1,.3-.16,1,1,0,0,1,.34,0,.75.75,0,0,1,.32.1l.34.19a.85.85,0,0,0,1-.07.84.84,0,0,0,.29-.41.94.94,0,0,0,0-.5l-2.94-9.71a.88.88,0,0,0-.4-.49.84.84,0,0,0-.62-.09L5.44,23a.78.78,0,0,0-.43.25.87.87,0,0,0-.22.45.83.83,0,0,0,.08.49.91.91,0,0,0,.33.37l1.08.61L.53,35a.84.84,0,0,0-.14.43.87.87,0,0,0,.42.76A.83.83,0,0,0,1.25,36.33Z"/></g></mask></defs><g class="cls-2"><path class="cls-3" d="M33.63,0H21.32a.82.82,0,0,0-.43.12.84.84,0,0,0-.31.31L12.06,15.06a.85.85,0,0,0-.08.64.84.84,0,0,0,.4.52l9.25,5.3a.89.89,0,0,0,.64.09.85.85,0,0,0,.52-.37l11.59-20a.88.88,0,0,0,.11-.42.82.82,0,0,0-.12-.43.84.84,0,0,0-.31-.31A.92.92,0,0,0,33.63,0Zm-1.7,19.21-.33.19a.79.79,0,0,0-.34.36.84.84,0,0,0-.07.49.76.76,0,0,0,.21.45.8.8,0,0,0,.43.26l9.91,2.33a.92.92,0,0,0,.63-.09.85.85,0,0,0,.39-.5L45.7,13a.82.82,0,0,0,0-.49.8.8,0,0,0-.28-.41.9.9,0,0,0-1-.08l-1.08.62L37.64,2.79a.77.77,0,0,0-.31-.31.82.82,0,0,0-.43-.12.79.79,0,0,0-.42.12.86.86,0,0,0-.32.31L30,13.37a.85.85,0,0,0-.11.42.88.88,0,0,0,.11.42L32.25,18a.87.87,0,0,1,.08.65.88.88,0,0,1-.4.51ZM51.72,48.8l6.16-10.57a.76.76,0,0,0,.12-.42.82.82,0,0,0-.12-.43L49.37,22.74a.82.82,0,0,0-.52-.39.87.87,0,0,0-.65.08L39,27.73a.88.88,0,0,0-.25.22.85.85,0,0,0-.15.3.91.91,0,0,0,0,.33.89.89,0,0,0,.11.31L50.24,48.8a.86.86,0,0,0,1.48,0Zm-15.9-11v-.39a.8.8,0,0,0-.15-.47.94.94,0,0,0-.39-.32,1,1,0,0,0-.5,0,.92.92,0,0,0-.44.25l-7,7.39a.85.85,0,0,0,0,1.16l7,7.41a.91.91,0,0,0,.44.24.86.86,0,0,0,.5,0,.85.85,0,0,0,.39-.31.83.83,0,0,0,.15-.48V50.9H47.28a.79.79,0,0,0,.42-.12.86.86,0,0,0,.32-.31.86.86,0,0,0,0-.84L41.86,39a.77.77,0,0,0-.31-.31.82.82,0,0,0-.43-.12H36.68a.86.86,0,0,1-.61-.25A.84.84,0,0,1,35.82,37.75ZM24.9,50.07V39.48a.86.86,0,0,0-.25-.61.88.88,0,0,0-.61-.25H.86a.92.92,0,0,0-.43.11,1,1,0,0,0-.32.32.85.85,0,0,0-.11.42.82.82,0,0,0,.12.43L6.27,50.49a.77.77,0,0,0,.31.31.82.82,0,0,0,.43.12H24a.87.87,0,0,0,.86-.85ZM1.25,36.33H13.59a.83.83,0,0,0,.74-.42l2.22-3.82a.89.89,0,0,1,.21-.26.87.87,0,0,1,.3-.16,1,1,0,0,1,.34,0,.75.75,0,0,1,.32.1l.34.19a.85.85,0,0,0,1-.07.84.84,0,0,0,.29-.41.94.94,0,0,0,0-.5l-2.94-9.71a.88.88,0,0,0-.4-.49.84.84,0,0,0-.62-.09L5.44,23a.78.78,0,0,0-.43.25.87.87,0,0,0-.22.45.83.83,0,0,0,.08.49.91.91,0,0,0,.33.37l1.08.61L.53,35a.84.84,0,0,0-.14.43.87.87,0,0,0,.42.76A.83.83,0,0,0,1.25,36.33Z"/></g></svg>