<svg width="58" height="58" fill="none" xmlns="http://www.w3.org/2000/svg"><path d="M1.088 45.286a3.726 3.726 0 000 5.263l6.362 6.362a3.694 3.694 0 002.63 1.09c.995 0 1.93-.388 2.632-1.09L29.55 40.072a3.682 3.682 0 001.046-2.2l4.714 4.714a11.59 11.59 0 002.845 11.763 11.547 11.547 0 008.183 3.405c1.21 0 2.432-.19 3.627-.58l.04-.017c.042-.016.083-.035.123-.055.038-.019.076-.037.11-.058.033-.02.064-.044.095-.067.039-.03.077-.058.112-.091.01-.01.02-.016.03-.025.017-.017.03-.037.045-.055a1.212 1.212 0 00.294-.558 1.228 1.228 0 00.032-.368 1.663 1.663 0 00-.011-.125 1.374 1.374 0 00-.03-.133c-.006-.024-.007-.048-.016-.072-.004-.014-.012-.025-.017-.039a1.326 1.326 0 00-.055-.124c-.019-.038-.037-.075-.059-.112-.02-.032-.042-.061-.065-.092-.03-.04-.06-.079-.094-.114-.009-.01-.015-.021-.024-.03l-4.367-4.368a1.833 1.833 0 01-.004-2.588l2.19-2.19a1.813 1.813 0 011.291-.536h.002c.489 0 .95.192 1.296.538l4.367 4.368c.01.01.02.016.03.025.035.033.073.062.112.09.032.024.063.048.095.069.035.02.072.039.11.057.041.02.082.04.126.056l.037.017c.014.004.027.002.04.006.117.034.236.057.357.058h.01a1.307 1.307 0 00.419-.076c.108-.037.211-.088.309-.155.017-.012.031-.027.048-.04.045-.034.09-.065.131-.106.033-.034.059-.071.087-.108.016-.02.034-.038.048-.059.072-.1.126-.207.165-.319.004-.009.01-.015.013-.024a11.541 11.541 0 00-2.824-11.812 11.582 11.582 0 00-11.758-2.844L35.109 27.4l13.375-13.378c.39-.389.917-.592 1.474-.55h.025a4.476 4.476 0 004.203-2.294l3.65-6.579c.28-.502.192-1.13-.215-1.536L56.278 1.72 55.248.69l-.311-.312A1.287 1.287 0 0053.4.162l-6.58 3.652a4.49 4.49 0 00-2.292 4.224 1.895 1.895 0 01-.55 1.474L30.597 22.89l-7.697-7.698a11.583 11.583 0 00-2.843-11.759A11.544 11.544 0 008.247.61c-.014.005-.025.012-.038.017a1.217 1.217 0 00-.126.056 1.247 1.247 0 00-.11.057c-.032.02-.063.044-.094.068a1.268 1.268 0 00-.112.09c-.01.01-.021.016-.03.026-.018.017-.03.037-.045.055a1.208 1.208 0 00-.294.557 1.318 1.318 0 00-.032.373c.003.04.005.08.012.12.007.046.018.091.03.136.007.024.008.048.016.071.004.014.011.025.016.037.016.044.036.085.056.127.018.037.036.075.058.11.02.032.042.061.065.091.03.041.061.08.095.116.009.01.014.02.023.029l4.368 4.367c.714.715.715 1.876.003 2.589l-2.19 2.19a1.833 1.833 0 01-2.589-.003L2.961 7.52c-.01-.01-.02-.015-.03-.025a1.2 1.2 0 00-.113-.092c-.031-.023-.062-.047-.094-.066a1.085 1.085 0 00-.112-.058 1.14 1.14 0 00-.122-.055c-.014-.005-.026-.013-.04-.017-.023-.008-.048-.01-.072-.015a1.098 1.098 0 00-.256-.041 1.334 1.334 0 00-.253.01 1.225 1.225 0 00-.35.101 1.205 1.205 0 00-.213.122c-.04.03-.079.062-.117.096-.017.014-.035.025-.05.04-.01.01-.016.02-.025.03a1.343 1.343 0 00-.093.115c-.023.03-.046.06-.066.093-.021.035-.04.072-.058.11-.02.04-.04.082-.055.125-.005.013-.013.025-.018.038a11.554 11.554 0 002.825 11.81 11.588 11.588 0 008.204 3.404c1.189 0 2.386-.193 3.551-.567l4.721 4.72c-.829.097-1.6.45-2.199 1.049L1.088 45.286zm40.474-7.788l.002.003.002.002c.024.023.051.04.076.062.038.032.075.067.116.094.217.147.468.222.72.222.176 0 .35-.039.515-.11a9.012 9.012 0 019.749 1.992 8.976 8.976 0 012.625 6.968l-2.66-2.659a4.384 4.384 0 00-3.117-1.293h-.002a4.375 4.375 0 00-3.114 1.29l-2.19 2.19a4.415 4.415 0 00.003 6.234l2.657 2.657a8.976 8.976 0 01-6.966-2.623 9.016 9.016 0 01-2.006-9.717c.121-.061.238-.137.34-.24l1.088-1.095a1.29 1.29 0 00-1.83-1.817l-.768.774-5.467-5.466.02-.02a3.48 3.48 0 00.492-4.284l1.439-1.44 8.276 8.276zM45.8 11.334a4.478 4.478 0 001.3-3.477 1.902 1.902 0 01.971-1.79l5.73-3.18 1.31 1.31-3.18 5.73a1.886 1.886 0 01-1.79.972c-.008 0-.016 0-.025-.002a4.464 4.464 0 00-3.454 1.302L30.096 28.768l-.432-.433-.432-.432 2.277-2.277.001-.001.001-.001 14.29-14.29zM5.472 18.02a8.975 8.975 0 01-2.623-6.965l2.657 2.657c.86.86 1.99 1.29 3.12 1.29a4.39 4.39 0 003.114-1.287l2.19-2.19a4.413 4.413 0 00-.003-6.234l-2.66-2.659a8.972 8.972 0 016.968 2.625 9.008 9.008 0 012.045 9.606c-.06.042-.118.087-.172.14L19.02 16.1a1.29 1.29 0 001.828 1.818l.565-.569 7.364 7.364-1.438 1.439a3.446 3.446 0 00-1.826-.528 3.46 3.46 0 00-2.463 1.024l-.016.016-6.358-6.359a1.286 1.286 0 00-1.414-.302 9.02 9.02 0 01-9.79-1.982zm15.895 12.252l.844.843a1.288 1.288 0 001.829-1.814l.835-.835a.92.92 0 011.275 0l3.383 3.384a.903.903 0 01-.004 1.278l-.83.83-2.108-2.108a1.289 1.289 0 00-1.822 1.823l2.96 2.96a1.145 1.145 0 010 1.617l-16.84 16.838a1.171 1.171 0 01-1.617 0l-6.36-6.361a1.146 1.146 0 010-1.618L19.748 30.27c.432-.433 1.185-.432 1.618 0z" fill="#E63B30"/><path d="M5.995 49.854c.33 0 .66-.126.912-.378l2.654-2.655a1.29 1.29 0 00-1.822-1.823l-2.655 2.655a1.289 1.289 0 00.911 2.2zM18.69 40.925L8.522 51.092l1.822 1.822 10.167-10.167a1.289 1.289 0 10-1.823-1.822z" fill="#E63B30"/><path d="M11.005 44.841c.33 0 .658-.126.91-.376l7.742-7.733a.99.99 0 011.398.004l.233.233a.97.97 0 01-.02 1.38l1.842 1.803a3.544 3.544 0 000-5.007l-.233-.233a3.57 3.57 0 00-5.041-.004l-7.742 7.732a1.29 1.29 0 00.91 2.201z" fill="#E63B30"/></svg>