<svg width="49" height="55" fill="none" xmlns="http://www.w3.org/2000/svg"><path d="M31.803 21.156h0l.002-.002a1.368 1.368 0 012.234.47l.227-.09-.227.09a1.368 1.368 0 01-.329 1.492h0l-.001.002-8.078 7.834h0a1.365 1.365 0 01-1.933-.03h0l-4.347-4.48s0 0 0 0a1.368 1.368 0 011.962-1.907l3.221 3.321.174.18.18-.174 6.915-6.706z" fill="#E63B30" stroke="#fff" stroke-width=".5"/><path d="M47.399 8.331h.006a1.362 1.362 0 011.31 1.482c-.107 1.264-.647 7.469-1.474 13.904-.414 3.218-.898 6.49-1.436 9.23-.269 1.37-.55 2.603-.841 3.628-.292 1.028-.59 1.831-.887 2.352A37.309 37.309 0 0124.9 54.686c-.27.085-.56.085-.83 0a37.31 37.31 0 01-19.177-15.76c-.298-.52-.597-1.323-.89-2.351-.29-1.025-.572-2.259-.84-3.629-.538-2.739-1.023-6.011-1.436-9.23A354.283 354.283 0 01.255 9.813 1.378 1.378 0 01.594 8.79a1.361 1.361 0 01.971-.457h.006a44.9 44.9 0 0012.826-2.67h0l.013-.006A53.49 53.49 0 0023.693.498h0a1.385 1.385 0 011.583 0h0a53.486 53.486 0 009.284 5.158h0l.013.005A44.899 44.899 0 0047.4 8.331zM3.35 10.943l-.25.022.024.25c.425 4.696 1.071 10.596 1.803 15.658.366 2.53.754 4.854 1.147 6.715.196.93.394 1.747.593 2.418.197.666.398 1.203.604 1.563h0l.004.006a35.054 35.054 0 0017.119 14.321l.09.036.092-.036a35.055 35.055 0 0017.119-14.32h0l.004-.007c.206-.36.406-.897.603-1.563.198-.671.396-1.488.592-2.418.393-1.86.78-4.185 1.147-6.715.732-5.062 1.38-10.962 1.805-15.658l.023-.25-.25-.022a45.96 45.96 0 01-12.056-2.74 53.027 53.027 0 01-8.939-4.839l-.14-.094-.139.094a53.023 53.023 0 01-8.939 4.84 45.96 45.96 0 01-12.056 2.74z" fill="#E63B30" stroke="#fff" stroke-width=".5"/><path d="M23.924 49.004l-.001-.001A31.787 31.787 0 019.43 36.328c-.227-.402-.486-1.255-.76-2.458-.272-1.193-.551-2.699-.825-4.377-.548-3.356-1.074-7.39-1.478-10.97h0a1.366 1.366 0 011.204-1.511 1.383 1.383 0 011.515 1.202 99.418 99.418 0 002.707 16.718l.009.036.02.033A28.757 28.757 0 0024.38 46.2l.105.047.104-.048a28.768 28.768 0 0012.568-11.21l.02-.032.01-.037a100.975 100.975 0 002.702-16.754 1.393 1.393 0 011.513-1.205 1.37 1.37 0 011.205 1.514h0c-.404 3.589-.93 7.633-1.479 10.998-.275 1.683-.554 3.193-.826 4.39-.275 1.207-.535 2.063-.762 2.469a31.789 31.789 0 01-14.493 12.67h-.001a1.384 1.384 0 01-1.122 0zm-.101.228a1.633 1.633 0 001.324 0h-1.324zM17.223 13.106l.103-.042a50.006 50.006 0 007.03-3.54l.129-.078.13.078a51.212 51.212 0 007.029 3.538l-14.42.044zm0 0a1.375 1.375 0 01-1.674-.812 1.373 1.373 0 01.02-1.05m1.654 1.862l14.42-.044a1.368 1.368 0 101.006-2.544l-.007-.003h0A50.33 50.33 0 0125.2 6.681a1.37 1.37 0 00-1.432 0 49.284 49.284 0 01-7.441 3.832l-.004.002h0a1.371 1.371 0 00-.756.73m0 0l-.23-.1.23.1z" fill="#E63B30" stroke="#fff" stroke-width=".5"/></svg>