<svg width="80" height="80" fill="none" xmlns="http://www.w3.org/2000/svg"><circle cx="40" cy="40" r="40" fill="#E63B30"/><path d="M17.863 52.917a2.955 2.955 0 000 4.174l5.046 5.045a2.93 2.93 0 002.086.865c.789 0 1.53-.307 2.087-.865l13.355-13.355a2.92 2.92 0 00.83-1.744l3.739 3.738a9.191 9.191 0 002.256 9.33 9.158 9.158 0 009.366 2.24c.012-.004.02-.01.032-.014a.985.985 0 00.098-.043c.03-.015.06-.03.087-.046.026-.016.05-.035.075-.053.03-.023.061-.046.089-.072.007-.008.017-.013.024-.02.014-.014.023-.03.035-.044a.948.948 0 00.205-.348.998.998 0 00.022-.59c-.005-.02-.006-.04-.013-.058-.003-.01-.01-.02-.014-.03a1.047 1.047 0 00-.043-.1c-.015-.03-.03-.06-.047-.088-.015-.025-.033-.049-.052-.073a.974.974 0 00-.074-.09c-.007-.009-.012-.017-.02-.025l-3.463-3.464a1.454 1.454 0 01-.003-2.052l1.738-1.738a1.439 1.439 0 011.023-.424h.001c.388 0 .753.152 1.028.427l3.464 3.464.024.02c.028.026.058.049.088.072.026.018.05.037.076.053a.982.982 0 00.086.046.975.975 0 00.1.044l.03.014c.011.003.022.002.033.005.092.027.187.045.282.045h.008c.094 0 .186-.018.277-.043.018-.005.037-.01.055-.017.086-.03.168-.07.245-.123.014-.009.026-.02.039-.03.035-.028.071-.053.104-.086.026-.026.046-.056.069-.085.012-.015.026-.03.038-.047a1 1 0 00.13-.253c.003-.007.008-.012.01-.019a9.154 9.154 0 00-2.239-9.368 9.186 9.186 0 00-9.326-2.255l-6.104-6.106 10.608-10.61c.31-.308.727-.47 1.17-.437l.019.001a3.55 3.55 0 003.333-1.82l2.896-5.217a1.022 1.022 0 00-.172-1.219l-1.064-1.064-.817-.818-.247-.247a1.021 1.021 0 00-1.22-.171l-5.218 2.896a3.56 3.56 0 00-1.818 3.35c.03.435-.129.861-.436 1.169l-10.611 10.61-6.105-6.105a9.186 9.186 0 00-2.255-9.325 9.155 9.155 0 00-9.368-2.24c-.01.003-.02.01-.03.013a.974.974 0 00-.1.045c-.03.014-.058.028-.086.045-.026.016-.05.035-.076.054a.995.995 0 00-.088.072c-.008.007-.017.012-.024.02-.014.014-.023.03-.036.043a.961.961 0 00-.232.442 1.07 1.07 0 00-.017.39.973.973 0 00.024.11c.006.018.006.037.013.055.003.011.009.02.013.03a.974.974 0 00.044.1c.015.03.029.06.046.087.016.026.034.05.052.073.024.032.048.064.075.092.007.007.011.016.019.023l3.463 3.464c.567.566.568 1.487.003 2.053l-1.737 1.736a1.454 1.454 0 01-2.053-.002l-3.464-3.464c-.008-.008-.017-.012-.024-.02a.945.945 0 00-.09-.073c-.025-.018-.049-.037-.074-.052a.88.88 0 00-.09-.047.905.905 0 00-.096-.043c-.011-.004-.02-.01-.032-.013-.019-.006-.038-.008-.057-.013a.868.868 0 00-.203-.033 1.081 1.081 0 00-.2.009 1.133 1.133 0 00-.192.046 1.044 1.044 0 00-.255.131c-.033.023-.063.05-.093.076-.013.012-.027.02-.04.032-.007.007-.012.016-.02.024-.026.028-.05.059-.073.09-.019.025-.037.05-.052.075-.017.027-.032.057-.046.087-.016.032-.032.065-.044.099l-.014.03a9.164 9.164 0 002.24 9.367 9.19 9.19 0 006.507 2.7c.943 0 1.892-.154 2.816-.45l3.744 3.744a2.919 2.919 0 00-1.744.831L17.863 52.917zm32.1-6.177l.002.002.002.002c.018.018.04.032.06.049.03.025.059.053.091.075.173.116.372.176.571.176.14 0 .279-.03.41-.088a7.148 7.148 0 017.73 1.58 7.119 7.119 0 012.083 5.527l-2.11-2.109a3.477 3.477 0 00-2.472-1.026h-.002a3.47 3.47 0 00-2.469 1.023l-1.738 1.737a3.502 3.502 0 00.003 4.944l2.108 2.108a7.119 7.119 0 01-5.525-2.08 7.15 7.15 0 01-1.592-7.707c.097-.049.19-.109.27-.19l.863-.869a1.022 1.022 0 00-1.45-1.44l-.61.613-4.336-4.335.015-.015a2.76 2.76 0 00.39-3.399l1.142-1.141 6.564 6.563zm3.362-20.751a3.552 3.552 0 001.03-2.758c-.04-.58.262-1.137.77-1.42l4.545-2.521 1.04 1.039-2.523 4.544c-.282.509-.83.814-1.42.77h-.02a3.54 3.54 0 00-2.74 1.032L40.87 39.816l-.343-.343-.343-.343 1.806-1.806h.001v-.002L53.326 25.99zm-31.986 5.303a7.118 7.118 0 01-2.08-5.525l2.108 2.108a3.489 3.489 0 002.474 1.024 3.48 3.48 0 002.47-1.022l1.737-1.737a3.5 3.5 0 00-.003-4.944l-2.109-2.108a7.116 7.116 0 015.526 2.081 7.145 7.145 0 011.622 7.619 1.035 1.035 0 00-.136.111l-.864.869a1.023 1.023 0 001.45 1.442l.448-.45 5.84 5.84-1.14 1.14a2.733 2.733 0 00-3.402.394l-.013.013-5.042-5.043a1.02 1.02 0 00-1.121-.24 7.154 7.154 0 01-7.764-1.572zm12.607 9.716l.67.67a1.022 1.022 0 001.45-1.44l.662-.661a.73.73 0 011.012 0l2.682 2.683a.716.716 0 01-.003 1.014l-.658.658-1.671-1.671a1.023 1.023 0 00-1.446 1.446l2.348 2.347a.908.908 0 010 1.282L25.636 60.691a.929.929 0 01-1.282 0l-5.045-5.046a.91.91 0 010-1.283l13.354-13.354a.928.928 0 011.283 0z" fill="#fff"/><path d="M21.755 56.54c.262 0 .523-.1.723-.3l2.105-2.106a1.023 1.023 0 00-1.446-1.446l-2.105 2.106a1.022 1.022 0 00.723 1.745zM31.822 49.458L23.76 57.52l1.446 1.446 8.063-8.064a1.022 1.022 0 10-1.446-1.445z" fill="#fff"/><path d="M25.728 52.564c.26 0 .522-.1.722-.299l6.14-6.133a.785.785 0 011.109.004l.185.184a.77.77 0 01-.016 1.095l1.46 1.43a2.811 2.811 0 000-3.971l-.184-.185a2.832 2.832 0 00-3.998-.004l-6.14 6.133a1.023 1.023 0 00.722 1.746z" fill="#fff"/></svg>