<svg width="38" height="51" fill="none" xmlns="http://www.w3.org/2000/svg"><path d="M.625 2.747v39.875a2.75 2.75 0 002.747 2.748h18.684v4.497a1.133 1.133 0 001.84.885l2.829-2.262 2.822 2.261a1.135 1.135 0 001.842-.884v-4.498h3.143a2.75 2.75 0 002.747-2.747V7.927a1.12 1.12 0 00-.022-.22v-.002a1.143 1.143 0 00-.097-.274c-.011-.023-.023-.044-.035-.066a1.122 1.122 0 00-.178-.24L30.154.332A1.138 1.138 0 0029.85.12a1.133 1.133 0 00-.276-.098L29.57.02A1.172 1.172 0 0029.352 0H3.372A2.75 2.75 0 00.625 2.747zm26.81 43.406a1.133 1.133 0 00-1.418 0l-1.694 1.356v-3.251l.002-.022-.002-.022v-1.197a7.612 7.612 0 002.402.392c.838 0 1.642-.14 2.397-.39v4.487l-1.688-1.353zm7.097-3.05h-3.143v-1.294a7.635 7.635 0 002.898-7.22 1.133 1.133 0 10-2.24.343 5.392 5.392 0 01-5.323 6.21 5.392 5.392 0 01-5.386-5.385 5.392 5.392 0 015.386-5.386c1.674 0 3.224.759 4.253 2.083a1.134 1.134 0 001.79-1.392 7.61 7.61 0 00-6.042-2.958c-4.22 0-7.653 3.433-7.653 7.653a7.635 7.635 0 002.984 6.049v1.296H3.372a.48.48 0 01-.48-.48V2.746a.48.48 0 01.48-.48h24.847v4.046a2.75 2.75 0 002.747 2.747h4.047v33.562c0 .265-.216.48-.481.48zM33.41 6.792h-2.444a.48.48 0 01-.48-.48V3.869l2.665 2.665.259.26z" fill="#fff"/><path d="M26.724 32.413c-.379 0-.752.064-1.109.189a1.133 1.133 0 00.753 2.138 1.078 1.078 0 11.357 2.093c-.479 0-.904-.32-1.036-.78a1.133 1.133 0 10-2.178.625 3.358 3.358 0 003.213 2.422c1.844 0 3.344-1.5 3.344-3.343 0-1.844-1.5-3.344-3.344-3.344zM9.06 12.568H19.99a1.134 1.134 0 000-2.267H9.06a1.134 1.134 0 000 2.267zM28.844 10.301H23.21a1.134 1.134 0 000 2.267h5.633a1.134 1.134 0 000-2.267zM9.06 19.62h4.766a1.134 1.134 0 000-2.266H9.059a1.134 1.134 0 000 2.266zM28.844 17.354H17.057a1.134 1.134 0 000 2.266h11.787a1.134 1.134 0 000-2.266zM21.329 24.406H9.059a1.134 1.134 0 000 2.266h12.27a1.134 1.134 0 000-2.266zM28.844 24.406h-4.199a1.134 1.134 0 000 2.266h4.199a1.134 1.134 0 000-2.266zM16.97 31.458H9.06a1.134 1.134 0 000 2.267h7.91a1.134 1.134 0 000-2.267z" fill="#fff"/></svg>