<svg width="58" height="58" fill="none" xmlns="http://www.w3.org/2000/svg"><circle cx="29" cy="29" r="28" stroke="#E63B30" stroke-width="2"/><path d="M28.335 29.47H28V28.4h1.821V33h-1.486v-3.53zm-.313-2.622a.881.881 0 01.312-.603c.184-.157.426-.245.677-.245.252 0 .494.088.677.245a.881.881 0 01.312.603.881.881 0 01-.312.603 1.041 1.041 0 01-.677.245c-.251 0-.493-.087-.677-.245a.881.881 0 01-.312-.603z" fill="#E63B30"/><path d="M43.477 33.597a2.64 2.64 0 00-3.298.815l-4.108-2.024c.536-1.08.819-2.27.826-3.476a7.752 7.752 0 00-.869-3.541l3.341-2.354a2.65 2.65 0 10-.831-2.434c-.1.55-.02 1.117.227 1.619l-3.255 2.305a7.907 7.907 0 00-6.018-3.455v-3.778a2.661 2.661 0 10-1.015 0v3.778a7.809 7.809 0 00-6.58 4.427l-3.68-1.798a2.656 2.656 0 00-4.955-1.846 2.656 2.656 0 002.386 3.805c.296 0 .59-.05.869-.145a2.585 2.585 0 001.263-.89l3.724 1.813a7.653 7.653 0 00-.427 2.515 7.968 7.968 0 001.523 4.67l-3.779 2.65a2.65 2.65 0 10-2.515 4.318 2.634 2.634 0 003-3.395l3.936-2.775a7.907 7.907 0 005.224 2.44v4.896a2.655 2.655 0 101.015 0v-4.923a7.906 7.906 0 006.11-3.52l4.178 2.036a2.645 2.645 0 001.408 3.044 2.65 2.65 0 002.03.124 2.656 2.656 0 00.297-4.9h-.027zm-3.913-12.836a1.62 1.62 0 01.674-1.08 1.619 1.619 0 012.283.416 1.62 1.62 0 01-.415 2.278 1.619 1.619 0 01-2.278-.41 1.62 1.62 0 01-.265-1.204zm-12.22-6.095a1.62 1.62 0 113.24 0 1.62 1.62 0 01-3.24 0zm-10.217 9.085a1.62 1.62 0 01-2.192.756 1.62 1.62 0 01-.83-.94 1.62 1.62 0 01.075-1.252 1.639 1.639 0 112.947 1.436zm1.279 14.505a1.62 1.62 0 01-1.268 1.334 1.64 1.64 0 01-1.28-2.954 1.62 1.62 0 012.283.416c.237.343.332.765.265 1.177v.027zm12.214 6.067a1.62 1.62 0 11-3.24 0 1.62 1.62 0 013.24 0zM29 35.832a6.897 6.897 0 01-6.902-6.899c.007-.887.19-1.764.54-2.58a6.876 6.876 0 0112.3-.875 6.786 6.786 0 01.94 3.45 6.9 6.9 0 01-6.893 6.904H29zm14.79.874c-.194.389-.53.687-.94.832a1.618 1.618 0 01-1.155-2.983c.19-.11.399-.18.616-.208.247.001.49.058.712.168a1.619 1.619 0 01.767 2.191z" fill="#E63B30"/></svg>