<svg width="58" height="58" fill="none" xmlns="http://www.w3.org/2000/svg"><path d="M30.968 24.934l.373.037c.056.226.123.449.201.667l-.298.242a1.49 1.49 0 00-.208 2.09l.939 1.149a1.49 1.49 0 002.09.208l.298-.242c.063.041.134.07.201.108l.783-1.263a5.128 5.128 0 01-.589-.373.745.745 0 00-.913.023l-.719.592-.928-1.136.723-.593a.745.745 0 00.205-.89 5.15 5.15 0 01-.417-1.38.745.745 0 00-.664-.629l-.924-.086.071-.745h-1.49l-.071.596a1.49 1.49 0 001.33 1.629l.008-.004zM44.689 21.834l-.373-.037a6.681 6.681 0 00-.201-.667l.298-.243a1.49 1.49 0 00.209-2.09l-.947-1.151a1.49 1.49 0 00-2.094-.224l-.298.242a6.628 6.628 0 00-.611-.328l.037-.372a1.49 1.49 0 00-1.33-1.621l-1.49-.15a1.49 1.49 0 00-1.63 1.331l-.036.373a6.673 6.673 0 00-.667.2l-.243-.297a1.49 1.49 0 00-2.09-.209l-1.133.947a1.49 1.49 0 00-.477.711h1.956l.608-.495.406.499h2.5a.746.746 0 00.585-.648l.086-.928 1.472.141-.093.932a.745.745 0 00.484.79c.454.166.881.396 1.27.682a.745.745 0 00.914-.023l.719-.592.939 1.14-.723.593a.745.745 0 00-.205.89c.203.438.344.902.418 1.379a.744.744 0 00.663.63l.928.093-.142 1.468-.932-.093a.745.745 0 00-.793.466 5.14 5.14 0 01-.682 1.27.745.745 0 00.022.913l.593.72-1.14.938-.593-.723a.745.745 0 00-.347-.234l-1.118 1.803a6.7 6.7 0 00.66-.197l.242.298a1.49 1.49 0 002.09.209l1.148-.94a1.49 1.49 0 00.21-2.09l-.243-.298c.12-.198.23-.402.328-.611l.372.037a1.49 1.49 0 001.629-1.33l.149-1.49a1.49 1.49 0 00-1.33-1.629l.026.015z" fill="#E63B30"/><path d="M26.821 30.18v.373c-.217.084-.43.18-.637.287l-.28-.25a1.468 1.468 0 00-1.762-.197l1.178 1.692.25.234a.745.745 0 00.908.086c.41-.258.854-.458 1.32-.592a.745.745 0 00.536-.746l-.03-.935 1.49-.048.03.939a.746.746 0 00.582.704c.472.106.928.278 1.353.51a.745.745 0 00.901-.141l.34-.373 1.01-1.624a1.49 1.49 0 00-1.793.283l-.265.283a6.654 6.654 0 00-.656-.246v-.373a1.489 1.489 0 00-1.55-1.445l-1.49.044a1.49 1.49 0 00-1.435 1.535zM36.543 34.503l-.838 1.353h.216l.048 1.49-.939.03a.745.745 0 00-.31.082l-.33.536c-.034.056-.075.105-.113.157a5.156 5.156 0 01-.462 1.159.745.745 0 00.142.902l.682.64-1.014 1.085-.685-.667a.745.745 0 00-.91-.086c-.41.259-.853.458-1.319.593a.745.745 0 00-.536.745l.03.935-1.49.049-.03-.94a.746.746 0 00-.582-.704 5.165 5.165 0 01-1.353-.51.746.746 0 00-.901.141l-.641.682-1.085-1.013.664-.682a.746.746 0 00.085-.91 5.156 5.156 0 01-.503-1.035l-.529-.745a.745.745 0 00-.302-.056l-.935.03-.048-1.491h.23l-.916-1.338a1.491 1.491 0 00-.809 1.375l.045 1.49a1.49 1.49 0 001.535 1.443h.373c.084.217.18.43.287.637l-.265.283a1.49 1.49 0 00.067 2.106l1.085 1.017a1.49 1.49 0 002.105-.064l.265-.283c.214.094.433.176.655.246v.373A1.49 1.49 0 0028.702 45h.05l1.49-.045a1.49 1.49 0 001.442-1.535v-.373c.217-.084.43-.18.637-.287l.283.265a1.49 1.49 0 002.106-.067l1.017-1.084a1.49 1.49 0 00-.063-2.106l-.284-.264a6.63 6.63 0 00.246-.656H36a1.493 1.493 0 001.457-1.562l-.045-1.49a1.49 1.49 0 00-.868-1.293zM23.773 29.85a1.49 1.49 0 001.654-.373l1.01-1.089a1.49 1.49 0 00-.078-2.101l-.283-.265c.092-.214.173-.433.242-.656h.373a1.49 1.49 0 001.45-1.542l-.042-1.118h-1.49l.04 1.17-.934.033a.745.745 0 00-.701.593c-.103.473-.273.93-.503 1.356a.746.746 0 00.149.902l.686.633-1.006 1.088-.671-.626a.746.746 0 00-.91-.082c-.099.063-.2.122-.301.18l1.315 1.896zM24.958 16.89a1.49 1.49 0 00-2.102.077l-.264.284a6.58 6.58 0 00-.656-.243v-.372a1.49 1.49 0 00-1.554-1.45l-1.49.056a1.49 1.49 0 00-1.431 1.543v.372c-.218.086-.43.183-.637.291l-.284-.265a1.49 1.49 0 00-2.101.079l-.991 1.106a1.49 1.49 0 00.078 2.102l.283.265a6.598 6.598 0 00-.242.655h-.373a1.49 1.49 0 00-1.45 1.554l.057 1.49a1.49 1.49 0 001.542 1.432h.373c.086.217.183.43.29.637l-.264.283a1.49 1.49 0 00.078 2.102l1.088 1.01a1.49 1.49 0 002.102-.079l.264-.283c.215.092.433.173.656.242v.373a1.49 1.49 0 001.49 1.434h.083l-2.542-3.703a.744.744 0 00-.372.22l-.634.685-1.088-1.006.604-.67a.745.745 0 00.082-.91 5.134 5.134 0 01-.544-1.144 2.24 2.24 0 01-.12-.313.746.746 0 00-.678-.372l-.935.037-.056-1.49.936-.034a.745.745 0 00.715-.619c.103-.473.272-.93.503-1.356a.744.744 0 00-.149-.902l-.686-.633 1.007-1.089.67.627a.746.746 0 00.91.081 5.138 5.138 0 011.166-.529 2.21 2.21 0 01.316-.119.746.746 0 00.373-.678l-.037-.935 1.49-.056.034.935a.746.746 0 00.42.64h2.807l.253-.271.295.272h2.083a1.492 1.492 0 00-.272-.354l-1.096-1.01z" fill="#E63B30"/><path d="M19.097 19.758h-.038a3.726 3.726 0 00-2.742 4.472v.033c.21.844.708 1.587 1.408 2.102l7.952 11.44a3.726 3.726 0 007.27-.422.745.745 0 00.183-.193l6.562-10.58a3.725 3.725 0 001.863-3.226V23.343a3.727 3.727 0 00-4.509-3.6h-16.34a3.726 3.726 0 00-1.61.015zm12.065 18.214a2.236 2.236 0 11-2.418-3.353 2.264 2.264 0 011.9.427c.394.313.67.749.787 1.238a2.236 2.236 0 01-.269 1.688zm6.667-16.824a2.235 2.235 0 110 4.471 2.235 2.235 0 010-4.47zm-14.265 1.353a3.701 3.701 0 00-.58-1.267h11.808a3.725 3.725 0 002.835 5.876l-5.015 8.071a3.726 3.726 0 00-6.529-.339c-.106.176-.199.36-.275.552L20.05 27.11a3.706 3.706 0 003.514-4.602v-.007zm-1.45.354a2.236 2.236 0 11-4.344 1.058 2.236 2.236 0 014.345-1.058z" fill="#E63B30"/><circle cx="29" cy="29" r="28" stroke="#E63B30" stroke-width="2"/></svg>