<svg width="49" height="58" fill="none" xmlns="http://www.w3.org/2000/svg"><path d="M22.186 34.031v-2.457l.445-.05c8.588-.959 15.854-7.301 17.761-15.848L22.186 34.03zm0 0h.5m-.5 0h.5m0 0h2.632c13.045 0 20.348-9.955 20.348-17.039 0-7.601-6.163-13.716-13.657-13.716-4.055 0-7.877 1.8-10.454 4.932-.51.563-1.326.659-1.925.174-.563-.516-.657-1.343-.166-1.948C22.601 2.624 27.194.5 32.084.5 41.128.5 48.5 7.902 48.5 16.992c0 9.509-9.215 19.815-23.107 19.815h-3.207v3.483l.491.01c4.02.073 7.582 1.465 10.343 4.017 3.056 2.926 4.88 7.1 4.954 11.497-.002.72-.619 1.384-1.379 1.384-.774 0-1.38-.605-1.38-1.388 0-3.681-1.48-7.14-4.07-9.505-2.279-2.13-5.18-3.227-8.447-3.305l-.512-.012v2.593l.414.073c4.995.872 9.19 4.728 10.273 9.807l.002.008.002.008c.11.444.003.959-.346 1.368-.366.429-.833.655-1.35.655H9.756c-.516 0-.983-.226-1.349-.655l-.012-.015-.014-.014c-.307-.308-.438-.802-.318-1.35 1.159-5.088 5.285-8.94 10.275-9.812l.413-.072v-2.507H10.592c-1.71-.071-3.2-.963-4.011-2.39-.808-1.42-.745-3.187.065-4.549.875-1.345 2.428-2.175 4.37-2.105h7.734V31.57m3.936 2.461L18.75 31.57m0 0l-.448-.047m.448.047l-.448-.047m0 0C9.72 30.64 2.452 24.226.544 15.675c-.118-.536.001-1.053.344-1.455.366-.429.833-.655 1.349-.655H38.7c.516 0 .983.226 1.349.655.342.402.462.918.343 1.455l-22.09 15.848zM5.319 16.945h-.742l.279.688c2.557 6.305 8.83 10.583 15.725 10.583 6.896 0 13.168-4.278 15.726-10.583l.279-.688H5.319zm22.78 37.25h.895l-.469-.761c-1.667-2.712-4.683-4.468-7.944-4.468s-6.277 1.756-7.944 4.468l-.469.761H28.1zM9.188 37.56l-.007.01-.006.01c-.327.548-.306 1.185-.018 1.764.328.658.978.956 1.65.956h8.169v-3.492h-7.793a4.06 4.06 0 00-1.031.112c-.346.092-.72.274-.964.64z" fill="#fff" stroke="#E63B30"/></svg>