<svg width="51" height="51" fill="none" xmlns="http://www.w3.org/2000/svg"><path d="M41.436 26.633h3.318a3.23 3.23 0 003.018 2.094A3.23 3.23 0 0051 25.5a3.23 3.23 0 00-3.227-3.227 3.23 3.23 0 00-3.018 2.093h-3.318v-6h3.318a3.23 3.23 0 003.018 2.094A3.23 3.23 0 0051 17.233a3.23 3.23 0 00-3.227-3.227 3.23 3.23 0 00-3.018 2.093h-3.318v-1.003c0-.3-.12-.588-.332-.8l-4.4-4.4a1.134 1.134 0 00-.801-.332H34.9V6.245a3.23 3.23 0 002.093-3.017A3.23 3.23 0 0033.767 0a3.23 3.23 0 00-3.227 3.227 3.23 3.23 0 002.093 3.018v3.318h-6V6.245a3.23 3.23 0 002.094-3.018A3.23 3.23 0 0025.5 0a3.23 3.23 0 00-3.227 3.227c0 1.38.872 2.557 2.093 3.018v3.318h-6V6.245a3.229 3.229 0 002.093-3.018A3.23 3.23 0 0017.233 0a3.23 3.23 0 00-3.227 3.227c0 1.38.872 2.557 2.093 3.018v3.318h-1.003c-.3 0-.588.12-.8.332l-4.401 4.4c-.212.212-.332.5-.332.8V16.1H6.245a3.23 3.23 0 00-3.018-2.094A3.232 3.232 0 000 17.233a3.23 3.23 0 003.227 3.227 3.23 3.23 0 003.018-2.094h3.319v6H6.245a3.23 3.23 0 00-3.018-2.093A3.23 3.23 0 000 25.5a3.23 3.23 0 003.227 3.227 3.23 3.23 0 003.018-2.094h3.319v6H6.245a3.23 3.23 0 00-3.018-2.093A3.23 3.23 0 000 33.767a3.231 3.231 0 003.227 3.227A3.23 3.23 0 006.245 34.9h3.319v1.003c0 .3.12.589.332.801l4.4 4.4c.212.212.5.332.801.332H16.1v3.318a3.23 3.23 0 00-2.094 3.018 3.23 3.23 0 003.227 3.227 3.23 3.23 0 003.227-3.227 3.23 3.23 0 00-2.093-3.018v-3.318h6v3.318a3.23 3.23 0 00-2.094 3.018 3.23 3.23 0 003.227 3.227 3.23 3.23 0 003.227-3.227c0-1.38-.873-2.557-2.094-3.017v-3.319h6v3.319a3.23 3.23 0 00-2.093 3.017A3.23 3.23 0 0033.767 51a3.23 3.23 0 003.227-3.227 3.23 3.23 0 00-2.094-3.017v-3.319h1.003c.3 0 .589-.12.801-.332l4.4-4.4c.213-.212.333-.5.333-.8V34.9h3.318a3.23 3.23 0 003.018 2.093A3.23 3.23 0 0051 33.767a3.23 3.23 0 00-3.227-3.227 3.23 3.23 0 00-3.018 2.094h-3.319v-6.001zm6.336-2.094a.962.962 0 010 1.921.962.962 0 01-.96-.96c0-.53.43-.96.96-.96zm0-8.267a.961.961 0 010 1.921.962.962 0 010-1.921zM33.767 2.267a.962.962 0 010 1.92.961.961 0 010-1.92zm-8.267 0a.962.962 0 010 1.92.961.961 0 010-1.92zm-8.267 0a.961.961 0 010 1.92.962.962 0 010-1.92zM3.227 18.193a.962.962 0 01-.96-.96c0-.53.43-.96.96-.96a.962.962 0 010 1.92zm0 8.267a.962.962 0 010-1.92c.53 0 .96.43.96.96 0 .529-.43.96-.96.96zm0 8.267a.962.962 0 010-1.92c.53 0 .96.43.96.96 0 .529-.43.96-.96.96zm14.006 14.006a.962.962 0 010-1.921.961.961 0 010 1.92zm8.267 0a.962.962 0 010-1.921.961.961 0 010 1.92zm8.267 0a.961.961 0 010-1.921.962.962 0 010 1.92zm14.005-15.927a.962.962 0 010 1.921.962.962 0 010-1.92zm-8.603 2.627l-3.736 3.736H15.566l-3.736-3.736V15.566l3.736-3.736h19.867l3.736 3.736v19.867z" fill="#fff"/><path d="M34.357 15.563a1.134 1.134 0 00-.801-.332H17.444c-.3 0-.59.12-.802.332l-1.08 1.08c-.212.212-.332.5-.332.801v10.842a1.134 1.134 0 002.267 0V17.914l.416-.417h15.173l.416.417v1.778a1.134 1.134 0 002.267 0v-2.247c0-.3-.12-.59-.332-.802l-1.08-1.08zM34.636 21.675c-.626 0-1.133.508-1.133 1.134v.944a1.134 1.134 0 002.266 0v-.944c0-.626-.507-1.134-1.133-1.134zM34.636 25.547c-.626 0-1.133.508-1.133 1.133v6.407l-.416.416H17.913l-.416-.416v-2.062a1.134 1.134 0 00-2.267 0v2.531c0 .3.12.59.332.802l1.08 1.08c.213.212.501.332.802.332h16.112c.3 0 .589-.12.801-.332l1.08-1.08c.213-.213.332-.501.332-.802v-6.875c0-.626-.507-1.134-1.133-1.134z" fill="#fff"/></svg>