<svg width="60" height="60" fill="none" xmlns="http://www.w3.org/2000/svg"><path d="M59 48H1a1 1 0 00-1 1v6a1 1 0 001 1h4v3a1 1 0 001 1h8a1 1 0 001-1v-3h30v3a1 1 0 001 1h8a1 1 0 001-1v-3h4a1 1 0 001-1v-6a1 1 0 00-1-1zM13 58H7v-2h6v2zm40 0h-6v-2h6v2zm5-4H2v-4h56v4zM4 46h52a1 1 0 001-1V23a1 1 0 00-1-1H44V1a1 1 0 00-1-1H17a1 1 0 00-1 1v21H4a1 1 0 00-1 1v22a1 1 0 001 1zm51-2H31V24h8v5a1 1 0 001 1h6a1 1 0 001-1v-5h8v20zM45 28h-4v-4h4v4zM32 2v4h-4V2h4zM18 2h8v5a1 1 0 001 1h6a1 1 0 001-1V2h8v20H18V2zm1 22v4h-4v-4h4zM5 24h8v5a1 1 0 001 1h6a1 1 0 001-1v-5h8v20H5V24z" fill="#E63B30"/><path d="M12 40H8a1 1 0 000 2h4a1 1 0 000-2zM12 37H8a1 1 0 000 2h4a1 1 0 000-2zM16 37h-1a1 1 0 000 2h1a1 1 0 000-2zM16 40h-1a1 1 0 000 2h1a1 1 0 000-2zM21 20h4a1 1 0 000-2h-4a1 1 0 000 2zM21 17h4a1 1 0 000-2h-4a1 1 0 000 2zM28 17h1a1 1 0 000-2h-1a1 1 0 000 2zM28 20h1a1 1 0 000-2h-1a1 1 0 000 2zM38 40h-4a1 1 0 000 2h4a1 1 0 000-2zM38 37h-4a1 1 0 000 2h4a1 1 0 000-2zM42 37h-1a1 1 0 000 2h1a1 1 0 000-2zM42 40h-1a1 1 0 000 2h1a1 1 0 000-2z" fill="#E63B30"/></svg>