<svg width="55" height="51" fill="none" xmlns="http://www.w3.org/2000/svg"><path d="M23.455 38.984a3.923 3.923 0 102.97 7.189 3.923 3.923 0 00-2.97-7.189zm2.147 4.446a1.308 1.308 0 11-2.267-1.308 1.308 1.308 0 012.268 1.308h-.001z" fill="#E63B30"/><path d="M54.867 34.627a3.933 3.933 0 00-4.807-2.773l-1.343.36-6.093-22.735a1.308 1.308 0 00-1.601-.925L30.92 11.262l-2.507.673-8.862 2.374-3.385-12.631a1.307 1.307 0 00-1.224-.97L4.102.388a3.898 3.898 0 00-2.916 1.147 3.983 3.983 0 002.731 6.818l5.946.098 8.05 30.043a7.837 7.837 0 1014.13 6.313l20.049-5.375a3.922 3.922 0 002.775-4.804zM31.693 19.18l-2.528.677-1.353-5.052 1.268-.34 1.257-.338 1.356 5.053zm-6.408-3.7l1.692 6.316a1.308 1.308 0 001.602.925l5.053-1.354a1.307 1.307 0 00.924-1.601l-1.7-6.316 7.585-2.03 5.753 21.472-16.186 4.336a7.882 7.882 0 00-4.924-2.268l-4.857-18.125 5.058-1.354zM10.888 5.85l-6.93-.114a1.368 1.368 0 11.064-2.735l9.871.293 3.47 12.953 5.077 18.945a7.812 7.812 0 00-2.407 1.12L12.129 6.816a1.308 1.308 0 00-1.24-.967zm14.936 41.975a5.231 5.231 0 113.7-6.407 5.237 5.237 0 01-3.7 6.407zm25.592-10.919l-19.143 5.129a7.85 7.85 0 00-.223-1.293 8 8 0 00-.453-1.233l16.53-4.43 2.606-.698a1.308 1.308 0 11.677 2.527l.006-.002z" fill="#E63B30"/></svg>