<svg width="45" height="42" viewBox="0 0 45 42" fill="none" xmlns="http://www.w3.org/2000/svg">
<path d="M27.5929 22.8518C27.5946 21.9332 27.3238 21.0348 26.8148 20.2702C26.3057 19.5056 25.5813 18.9092 24.7331 18.5565C23.885 18.2037 22.9513 18.1106 22.0502 18.2887C21.149 18.4668 20.321 18.9083 19.6709 19.5572C19.0208 20.2061 18.5777 21.0333 18.3979 21.9341C18.2181 22.8348 18.3095 23.7687 18.6606 24.6175C19.0117 25.4663 19.6067 26.1919 20.3704 26.7024C21.134 27.2129 22.0319 27.4854 22.9505 27.4854C24.1798 27.4843 25.3586 26.996 26.2288 26.1275C27.0989 25.259 27.5894 24.0811 27.5929 22.8518V22.8518ZM22.9505 26.169C22.2923 26.169 21.6489 25.9737 21.1017 25.6079C20.5545 25.242 20.1282 24.722 19.8768 24.1138C19.6253 23.5055 19.5599 22.8363 19.689 22.1909C19.818 21.5454 20.1357 20.9528 20.6017 20.488C21.0677 20.0232 21.6612 19.7071 22.307 19.5798C22.9527 19.4524 23.6218 19.5196 24.2294 19.7726C24.837 20.0257 25.3558 20.4534 25.7202 21.0015C26.0846 21.5496 26.2782 22.1936 26.2765 22.8518C26.2742 23.7324 25.9227 24.5761 25.2992 25.198C24.6757 25.8198 23.8311 26.169 22.9505 26.169V26.169Z" fill="#E63B30"/>
<path d="M28.0141 16.3972L33.815 6.34881C33.9632 6.07978 34.0003 5.76342 33.9183 5.4674C33.8363 5.17138 33.6417 4.91919 33.3762 4.76477C30.201 2.95292 26.6084 2 22.9527 2C19.2969 2 15.7043 2.95292 12.5292 4.76477C12.344 4.86642 12.1898 5.01643 12.0832 5.1988C11.9765 5.38117 11.9214 5.58907 11.9236 5.80032C11.9256 5.99985 11.9768 6.1958 12.0728 6.37075L17.8736 16.4191C17.9778 16.595 18.1261 16.7406 18.3039 16.8415C18.4817 16.9423 18.6828 16.9949 18.8873 16.9939C19.0876 16.9939 19.2844 16.9409 19.4577 16.8403C20.5166 16.2371 21.7142 15.9199 22.9329 15.9199C24.1516 15.9199 25.3493 16.2371 26.4082 16.8403C26.5815 16.9407 26.7783 16.9937 26.9786 16.9939C27.1889 16.9965 27.396 16.9425 27.5782 16.8375C27.7604 16.7325 27.911 16.5804 28.0141 16.3972ZM26.9523 15.6029C25.7258 14.9324 24.3505 14.5809 22.9527 14.5809C21.5549 14.5809 20.1795 14.9324 18.9531 15.6029L13.297 5.82665C16.2452 4.1715 19.5694 3.30218 22.9505 3.30218C26.3315 3.30218 29.6557 4.1715 32.6039 5.82665L26.9523 15.6029Z" fill="#E63B30"/>
<path d="M42.6742 21.6846H31.0725C30.9193 21.684 30.7674 21.7138 30.6258 21.7723C30.4842 21.8308 30.3555 21.9168 30.2474 22.0254C30.1392 22.134 30.0537 22.2629 29.9957 22.4047C29.9378 22.5466 29.9085 22.6985 29.9097 22.8518C29.9066 24.073 29.5833 25.272 28.9719 26.3292C28.3606 27.3863 27.4826 28.2646 26.4257 28.8764C26.2925 28.9512 26.1754 29.0516 26.0812 29.1719C25.987 29.2922 25.9174 29.4299 25.8767 29.5771C25.8359 29.7243 25.8246 29.8782 25.8435 30.0298C25.8625 30.1814 25.9112 30.3277 25.9869 30.4604L31.7877 40.5088C31.9421 40.7743 32.1943 40.9689 32.4903 41.0509C32.7864 41.1329 33.1027 41.0958 33.3718 40.9476C36.5465 39.1105 39.1835 36.4724 41.0192 33.2969C42.8549 30.1214 43.825 26.5197 43.8326 22.8518C43.8337 22.6989 43.8046 22.5473 43.7469 22.4058C43.6892 22.2642 43.6041 22.1355 43.4964 22.027C43.3887 21.9185 43.2606 21.8324 43.1195 21.7736C42.9784 21.7148 42.827 21.6846 42.6742 21.6846V21.6846ZM32.8671 39.7102L27.2199 29.9295C28.4171 29.2055 29.4121 28.1908 30.1125 26.9795C30.8128 25.7683 31.1959 24.3998 31.2261 23.001H42.5162C42.4821 26.3811 41.576 29.6952 39.8856 32.6225C38.1952 35.5498 35.7777 37.9911 32.8671 39.7102V39.7102Z" fill="#E63B30"/>
<path d="M12.4633 40.8994C12.6453 41.0204 12.8591 41.0846 13.0776 41.0837C13.2833 41.0849 13.4857 41.0325 13.6649 40.9317C13.8442 40.8309 13.9941 40.6852 14.1 40.5089L19.8789 30.4518C19.9546 30.3191 20.0033 30.1727 20.0222 30.0211C20.0411 29.8695 20.0299 29.7157 19.9891 29.5684C19.9483 29.4212 19.8788 29.2835 19.7846 29.1633C19.6904 29.043 19.5733 28.9426 19.4401 28.8677L19.5147 28.9116L19.4401 28.8677C18.391 28.2523 17.5209 27.3735 16.9159 26.3183C16.311 25.2631 15.9922 24.0682 15.9912 22.8519C15.9912 22.5447 15.8691 22.25 15.6519 22.0328C15.4347 21.8155 15.14 21.6935 14.8328 21.6935H3.22673C2.9195 21.6935 2.62485 21.8155 2.4076 22.0328C2.19036 22.25 2.06831 22.5447 2.06831 22.8519C2.07758 26.5052 3.04173 30.0926 4.86514 33.2584C6.68854 36.4241 9.30786 39.0582 12.4633 40.8994V40.8994ZM14.6573 23.0055C14.6875 24.4043 15.0705 25.7728 15.7709 26.9841C16.4712 28.1953 17.4662 29.21 18.6634 29.934L13.0337 39.7103C10.1239 37.9912 7.7066 35.5506 6.01556 32.6243C4.32452 29.698 3.41686 26.385 3.3803 23.0055H14.6573Z" fill="#E63B30"/>
</svg>
