<svg width="58" height="58" fill="none" xmlns="http://www.w3.org/2000/svg"><path d="M12.638 38.546c-.85.85-.85 2.235 0 3.085l3.73 3.73c.41.412.959.638 1.541.638.583 0 1.13-.227 1.543-.639l9.87-9.87c.361-.361.559-.818.614-1.29l2.763 2.764a6.793 6.793 0 001.668 6.895 6.768 6.768 0 006.922 1.656l.023-.01a.743.743 0 00.073-.033c.022-.01.044-.021.065-.034.019-.011.037-.025.055-.039a.747.747 0 00.066-.053c.005-.006.012-.01.018-.015.01-.01.017-.022.026-.032a.71.71 0 00.185-.397.81.81 0 000-.219.82.82 0 00-.018-.078c-.004-.014-.004-.028-.01-.042-.002-.008-.007-.015-.01-.023a.76.76 0 00-.032-.073c-.01-.022-.021-.044-.034-.065a.728.728 0 00-.093-.121l-.015-.018-2.56-2.56a1.074 1.074 0 01-.002-1.518l1.284-1.284c.202-.202.471-.313.757-.313.287 0 .557.112.76.315l2.56 2.56.018.015c.02.02.043.036.066.053.018.014.036.028.056.04.02.013.041.023.063.034a.714.714 0 00.074.033c.008.002.015.007.022.01.008.002.016 0 .024.003.069.02.138.033.209.034h.006a.77.77 0 00.205-.032l.04-.012a.753.753 0 00.182-.091l.028-.023c.026-.02.053-.039.077-.063.02-.02.034-.042.05-.063.01-.012.02-.022.029-.035a.734.734 0 00.097-.187l.007-.014a6.766 6.766 0 00-1.655-6.924 6.79 6.79 0 00-6.893-1.667l-4.512-4.513 7.841-7.841c.229-.228.537-.347.864-.323h.014a2.624 2.624 0 002.464-1.344l2.14-3.857a.755.755 0 00-.126-.9l-.787-.787-.604-.604-.183-.183a.755.755 0 00-.9-.127l-3.858 2.14a2.632 2.632 0 00-1.343 2.477 1.11 1.11 0 01-.323.864l-7.843 7.842-4.512-4.512a6.79 6.79 0 00-1.666-6.893 6.767 6.767 0 00-6.924-1.655c-.008.002-.014.006-.022.01a.703.703 0 00-.074.032.73.73 0 00-.064.034c-.02.012-.037.026-.056.04a.734.734 0 00-.065.053l-.018.015c-.01.01-.017.021-.026.032a.728.728 0 00-.191.545.724.724 0 00.024.15c.004.014.005.028.01.042.002.008.006.014.01.022.009.025.02.05.032.074a.654.654 0 00.072.118.738.738 0 00.056.068l.014.017 2.56 2.56c.418.419.419 1.1.002 1.517l-1.284 1.284a1.074 1.074 0 01-1.518-.002l-2.56-2.56-.018-.015a.703.703 0 00-.066-.054.638.638 0 00-.12-.073.651.651 0 00-.073-.032l-.023-.01-.042-.009a.816.816 0 00-.15-.024.807.807 0 00-.148.006.861.861 0 00-.142.034.766.766 0 00-.188.097.76.76 0 00-.069.056l-.03.024c-.005.005-.008.012-.014.017a.775.775 0 00-.055.067c-.013.019-.027.036-.038.055-.013.02-.023.043-.034.064-.012.025-.024.049-.033.074l-.01.022a6.773 6.773 0 001.656 6.923 6.792 6.792 0 004.809 1.996c.697 0 1.398-.114 2.082-.333l2.767 2.767a2.157 2.157 0 00-1.289.615l-9.87 9.87zm23.725-4.565l.002.002c.014.014.03.024.045.037.022.019.044.04.068.055a.752.752 0 00.724.065 5.283 5.283 0 015.715 1.169 5.261 5.261 0 011.538 4.084l-1.558-1.558a2.57 2.57 0 00-1.828-.759h-.001c-.69 0-1.338.269-1.825.756l-1.285 1.284a2.588 2.588 0 00.003 3.654l1.557 1.558c-1.5.1-2.986-.44-4.083-1.538a5.285 5.285 0 01-1.177-5.695.745.745 0 00.2-.14l.638-.643a.756.756 0 00-1.072-1.065l-.451.454-3.205-3.204.012-.012a2.04 2.04 0 00.288-2.511l.844-.844 4.851 4.851zm2.485-15.337c.536-.537.814-1.28.761-2.038-.03-.43.194-.841.57-1.05l3.358-1.864.769.768-1.864 3.359a1.106 1.106 0 01-1.05.57l-.015-.001a2.617 2.617 0 00-2.024.763l-9.71 9.712-.254-.253-.254-.254 1.335-1.335h.001l8.377-8.377zm-23.64 3.92a5.261 5.261 0 01-1.538-4.084l1.558 1.558a2.578 2.578 0 001.829.756c.661 0 1.322-.251 1.825-.755l1.284-1.284a2.587 2.587 0 00-.002-3.654l-1.559-1.558a5.26 5.26 0 014.084 1.538 5.28 5.28 0 011.199 5.631.76.76 0 00-.1.083l-.64.642a.756.756 0 001.072 1.066l.331-.334 4.317 4.317-.843.843a2.02 2.02 0 00-2.514.291l-.01.01-3.727-3.728a.754.754 0 00-.828-.177 5.288 5.288 0 01-5.739-1.162zm9.317 7.18l.495.495a.755.755 0 001.072-1.063l.49-.49c.2-.2.546-.2.747 0l1.983 1.984a.53.53 0 01-.003.749l-.486.487-1.236-1.236a.756.756 0 00-1.068 1.069l1.735 1.735a.672.672 0 010 .948l-9.87 9.87a.687.687 0 01-.949 0l-3.728-3.73a.672.672 0 010-.947l9.87-9.87a.686.686 0 01.948 0z" fill="#E63B30"/><path d="M15.515 41.224a.752.752 0 00.534-.221l1.556-1.556a.756.756 0 00-1.068-1.07l-1.556 1.557a.755.755 0 00.534 1.29zM22.956 35.99l-5.96 5.96 1.069 1.068 5.959-5.96a.755.755 0 10-1.068-1.068z" fill="#E63B30"/><path d="M18.451 38.286a.755.755 0 00.534-.22l4.538-4.533a.58.58 0 01.82.002l.136.137c.22.22.22.577-.012.808l1.08 1.057c.81-.809.81-2.125 0-2.934l-.137-.137a2.093 2.093 0 00-2.954-.003l-4.539 4.533a.756.756 0 00.534 1.29z" fill="#E63B30"/><circle cx="29" cy="29" r="28" stroke="#E63B30" stroke-width="2"/></svg>