<svg width="219" height="49" fill="none" xmlns="http://www.w3.org/2000/svg"><path d="M141.279 8.382a2.514 2.514 0 00-2.523-2.515 2.514 2.514 0 100 5.03 2.515 2.515 0 002.523-2.515zM174.807 8.382a2.514 2.514 0 00-2.523-2.515 2.514 2.514 0 100 5.03 2.515 2.515 0 002.523-2.515z" fill="#E6332A"/><path d="M72.64 29.232c0 1.555 1.184 3.074 3.602 3.074 3.114 0 5.115-3.266 5.115-6.095v-.646h-.94c-2.783-.017-7.777.14-7.777 3.667zM0 0v49h100.113V0H0zm35.494 34.785h-3.741c-1.757 0-2.488-.75-2.488-2.497v-9.307c0-3.161-.783-4.96-3.706-4.96-2.958 0-5.411 1.991-6.229 4.855-.226.664-.348 1.572-.348 2.654v9.273h-3.775V19.122c0-.594-.279-.856-.853-.856h-1.6V15h3.618c1.67 0 2.488.751 2.488 2.183v.751l-.07 1.135h.07c.505-1.135 1.41-2.148 2.645-3.09 1.288-.979 2.888-1.45 4.785-1.45 4.471 0 6.733 2.55 6.733 7.579v8.556c0 .594.278.856.853.856h1.6v3.265h.018zm31.892-16.537h-.54c-.626 0-1.008.28-1.2.786l-5.185 15.752H56.2l-4.09-12.713-.539-2.148h-.07c-.156.75-.347 1.484-.539 2.148l-4.088 12.712h-4.246l-5.202-15.75c-.191-.507-.626-.787-1.253-.787h-.539V15h2.384c1.757 0 2.453.437 2.957 2.113l3.463 11.77.47 2.113h.07c.156-.75.347-1.45.539-2.113l4.245-13.795h3.497l4.245 13.795.505 2.113h.07c.121-.75.313-1.45.504-2.113l3.497-11.77C62.584 15.437 63.245 15 65.002 15h2.384v3.248zm19.991 16.537h-3.445c-1.705 0-2.383-.838-2.383-2.2 0-.646.07-1.135.07-1.135h-.07s-1.514 3.79-6.107 3.79c-3.289 0-6.525-2.009-6.525-5.833 0-6.182 8.334-6.549 11.553-6.549h.835v-.192c0-3.37-1.253-4.575-4.245-4.575-.905 0-3.15.227-3.15 1.485v1.1h-3.444V18.79c0-3.143 4.767-3.598 6.629-3.598 6.211 0 7.881 3.248 7.881 7.492v8.137c0 .577.296.839.835.839h1.549v3.125h.017zM115.32 17.393c1.67-1.921 3.81-2.847 6.42-2.847 3.654 0 5.342 1.956 5.881 2.742l.191.314h.07c-.035-.384-.035-.82-.035-1.327v-4.977c0-.593-.278-.855-.852-.855h-1.601V7.195h3.706c1.757 0 2.54.75 2.54 2.497v20.99c0 .594.278.855.853.855h1.6v3.248h-3.619c-1.6 0-2.418-.698-2.418-2.112l.035-1.013h-.07c-.122.192-.156.436-.887 1.257-.94 1.048-2.645 2.34-5.568 2.34-2.644 0-4.75-.943-6.35-2.846-1.566-1.921-2.332-4.419-2.332-7.51-.017-3.125.8-5.64 2.436-7.508zm6.977 14.581c3.236 0 5.655-2.392 5.655-7.107 0-1.921-.47-3.598-1.445-4.96-.974-1.362-2.331-2.078-4.123-2.078-1.601 0-2.958.629-4.054 1.921s-1.636 3.004-1.636 5.17c-.017 4.242 2.28 7.054 5.603 7.054zM137.73 19.104c0-.593-.279-.855-.853-.855h-1.601V15h3.706c1.758 0 2.541.75 2.541 2.497v13.166c0 .594.278.856.852.856h1.601v3.248h-3.741c-1.757 0-2.488-.75-2.488-2.497V19.104h-.017zM148.656 38.313c1.636.89 3.428 1.327 5.377 1.327 3.74 0 6.263-1.764 6.263-5.518v-1.327l.035-1.258h-.07c-1.2 1.991-3.149 3.004-5.846 3.004-2.679 0-4.837-.943-6.42-2.846-1.601-1.921-2.418-4.349-2.418-7.265 0-2.916.783-5.273 2.296-7.107 1.566-1.834 3.654-2.777 6.351-2.777 3.897 0 5.689 1.956 6.194 2.777l.157.314h.069c-.035-.192-.035-.436-.035-.628 0-1.328.748-1.991 2.227-1.991h3.654v3.248h-1.601c-.591 0-.852.28-.852.786v14.93c0 6.531-4.907 9.028-9.935 9.028-2.331 0-4.558-.54-6.698-1.641l1.252-3.056zm11.727-13.848c0-4.418-1.862-6.653-5.568-6.653-3.392 0-5.376 2.462-5.376 6.53 0 4.192 2.175 6.916 5.724 6.916 3.08.018 5.22-1.973 5.22-6.793zM170.875 19.104c0-.593-.279-.855-.853-.855h-1.601V15h3.706c1.758 0 2.541.75 2.541 2.497v13.166c0 .594.278.856.852.856h1.601v3.248h-3.741c-1.757 0-2.488-.75-2.488-2.497V19.104h-.017zM180.305 18.056h-2.575V15h2.644V9.57h3.706V15h4.75v3.056h-4.75v9.063c0 3.947 2.802 4.453 4.211 4.453l.887-.087v3.37c-.348.035-.817.07-1.322.07-1.253 0-2.297-.07-3.741-.698-1.983-.856-3.81-2.742-3.81-6.689v-9.482zM202.941 22.474h.852v-.28c0-3.317-1.287-4.644-4.367-4.644-.748 0-1.444.122-2.175.35-.696.191-1.044.593-1.044 1.17v1.134h-3.601v-1.99c0-1.45 1.166-2.585 2.731-3.056 1.601-.472 2.889-.63 4.02-.63 6.072 0 8.212 2.847 8.212 7.737v8.4c0 .593.278.855.852.855h1.601v3.248h-3.584c-1.601 0-2.418-.751-2.418-2.27l.034-1.17h-.069c.069 0-1.671 3.911-6.351 3.911-1.827 0-3.393-.506-4.68-1.571-1.288-1.048-1.949-2.497-1.949-4.296.018-4.593 3.985-6.898 11.936-6.898zm-4.454 9.78c1.566 0 2.836-.664 3.81-1.956.974-1.293 1.479-2.742 1.479-4.349v-.75h-1.009c-5.342 0-7.986 1.292-7.986 3.824.017 1.746 1.374 3.23 3.706 3.23zM212.754 11.298c0-.593-.279-.855-.853-.855h-1.566V7.195h3.706c1.758 0 2.488.75 2.488 2.497v20.99c0 .594.279.855.853.855h1.601v3.248h-3.706c-1.758 0-2.541-.75-2.541-2.497v-20.99h.018z" fill="#F6F6F6"/></svg>