<svg width="220" height="49" fill="none" xmlns="http://www.w3.org/2000/svg"><path d="M141.927 8.384a2.523 2.523 0 00-2.527-2.516 2.522 2.522 0 00-2.528 2.516A2.523 2.523 0 00139.4 10.9a2.523 2.523 0 002.527-2.516zM175.602 8.384a2.523 2.523 0 00-2.528-2.516 2.521 2.521 0 00-2.527 2.516 2.523 2.523 0 002.527 2.516 2.522 2.522 0 002.528-2.516z" fill="#E63B30"/><path d="M72.966 29.226c0 1.555 1.18 3.069 3.616 3.069 3.122 0 5.139-3.257 5.139-6.099v-.644h-.953c-2.777 0-7.802.152-7.802 3.674zM0 0v49h100.579V0H0zm35.655 34.79H31.9c-1.762 0-2.505-.742-2.505-2.502v-9.305c0-3.166-.783-4.965-3.717-4.965-2.974 0-5.44 1.995-6.261 4.848-.235.664-.354 1.563-.354 2.658v9.266H15.27V19.113c0-.586-.275-.86-.862-.86h-1.605v-3.245h3.64c1.683 0 2.504.744 2.504 2.19v.742l-.078 1.133h.078c.509-1.133 1.409-2.151 2.66-3.089 1.292-.978 2.897-1.446 4.814-1.446 4.5 0 6.77 2.541 6.77 7.584v8.563c0 .586.274.86.861.86h1.605v3.245h-.002zm32.037-16.537h-.547c-.626 0-1.017.274-1.213.782L60.73 34.79h-4.265l-4.11-12.706-.547-2.151h-.078a28.99 28.99 0 01-.547 2.151l-4.11 12.706h-4.264L37.6 19.035c-.196-.508-.626-.782-1.254-.782H35.8v-3.245h2.388c1.76 0 2.464.43 2.973 2.111l3.484 11.769.47 2.11h.078c.156-.741.354-1.445.547-2.11l4.265-13.802h3.522l4.265 13.802.509 2.11h.078c.118-.741.313-1.445.51-2.11l3.483-11.769c.508-1.681 1.174-2.111 2.934-2.111h2.388v3.245h-.002zm20.084 16.54H84.31c-1.713 0-2.398-.832-2.398-2.196 0-.645.075-1.135.075-1.135h-.075s-1.522 3.787-6.13 3.787c-3.312 0-6.547-2.006-6.547-5.832 0-6.174 8.374-6.552 11.61-6.552h.838v-.189c0-3.37-1.257-4.582-4.265-4.582-.914 0-3.158.227-3.158 1.477v1.098h-3.464v-1.894c0-3.144 4.796-3.598 6.663-3.598 6.243 0 7.918 3.257 7.918 7.499v8.143c0 .568.304.833.837.833h1.56v3.142z" fill="#12100B"/><path d="M115.85 17.392c1.683-1.916 3.835-2.854 6.457-2.854 3.677 0 5.361 1.954 5.908 2.737l.196.312h.078c-.038-.391-.038-.82-.038-1.329v-4.964c0-.587-.275-.862-.862-.862h-1.605V7.188h3.718c1.762 0 2.543.742 2.543 2.502v20.995c0 .586.275.86.862.86h1.605v3.245h-3.639c-1.605 0-2.427-.704-2.427-2.111l.039-1.017h-.079c-.117.196-.155.43-.9 1.25-.938 1.056-2.66 2.346-5.595 2.346-2.66 0-4.773-.938-6.378-2.853-1.564-1.916-2.347-4.419-2.347-7.506 0-3.128.821-5.63 2.464-7.507zm7.006 14.583c3.247 0 5.673-2.384 5.673-7.114 0-1.916-.47-3.598-1.447-4.965-.977-1.367-2.347-2.073-4.148-2.073-1.604 0-2.973.625-4.069 1.916-1.096 1.29-1.643 3.01-1.643 5.16-.001 4.261 2.308 7.076 5.634 7.076zM138.367 19.113c0-.586-.275-.86-.862-.86H135.9v-3.245h3.718c1.762 0 2.543.744 2.543 2.502v13.176c0 .587.275.861.862.861h1.605v3.245h-3.757c-1.762 0-2.504-.742-2.504-2.503V19.113zM149.347 38.309c1.643.9 3.443 1.329 5.401 1.329 3.756 0 6.299-1.76 6.299-5.513v-1.33l.039-1.25h-.079c-1.213 1.993-3.169 3.011-5.869 3.011-2.701 0-4.853-.938-6.457-2.853-1.605-1.916-2.426-4.34-2.426-7.272 0-2.932.783-5.277 2.309-7.114 1.564-1.838 3.679-2.775 6.378-2.775 3.913 0 5.712 1.954 6.222 2.775l.156.312h.078c-.038-.196-.038-.43-.038-.625 0-1.329.743-1.994 2.23-1.994h3.68v3.244h-1.605c-.587 0-.86.274-.86.783V33.97c0 6.53-4.931 9.032-9.979 9.032-2.347 0-4.577-.546-6.731-1.641l1.252-3.053zm11.779-13.84c0-4.418-1.877-6.646-5.595-6.646-3.405 0-5.401 2.462-5.401 6.53 0 4.182 2.192 6.92 5.752 6.92 3.092-.002 5.244-1.996 5.244-6.803zM171.664 19.113c0-.586-.275-.86-.862-.86h-1.604v-3.245h3.717c1.762 0 2.544.744 2.544 2.502v13.176c0 .587.274.861.861.861h1.605v3.245h-3.756c-1.762 0-2.505-.742-2.505-2.503V19.113zM181.137 18.057h-2.583v-3.05h2.662V9.574h3.718v5.435h4.773v3.05h-4.773v9.071c0 3.948 2.817 4.457 4.226 4.457l.9-.079v3.362c-.351.038-.821.078-1.33.078-1.253 0-2.309-.078-3.756-.703-1.996-.861-3.835-2.737-3.835-6.685v-9.502h-.002zM203.869 22.475h.861v-.274c0-3.323-1.291-4.652-4.382-4.652-.742 0-1.447.117-2.191.35-.705.196-1.056.588-1.056 1.174v1.134H193.5v-1.993c0-1.446 1.175-2.58 2.739-3.049 1.605-.47 2.896-.625 4.031-.625 6.103 0 8.257 2.853 8.257 7.741v8.405c0 .587.274.861.862.861h1.604v3.245h-3.601c-1.604 0-2.426-.742-2.426-2.269l.039-1.173h-.079c.079 0-1.683 3.91-6.378 3.91-1.839 0-3.403-.508-4.695-1.563-1.291-1.055-1.956-2.503-1.956-4.301-.003-4.614 3.989-6.92 11.972-6.92zm-4.461 9.774c1.564 0 2.856-.663 3.835-1.954.979-1.29 1.487-2.736 1.487-4.34v-.742h-1.017c-5.361 0-8.021 1.29-8.021 3.832-.002 1.718 1.369 3.204 3.716 3.204zM213.737 11.293c0-.586-.274-.86-.86-.86h-1.566V7.187h3.718c1.76 0 2.505.742 2.505 2.502v20.995c0 .586.274.86.861.86H220v3.245h-3.718c-1.76 0-2.543-.742-2.543-2.502V11.294h-.002z" fill="#000"/></svg>