<svg version="1.1" id="Слой_1" xmlns="http://www.w3.org/2000/svg" x="0" y="0" viewBox="0 0 80 80" xml:space="preserve"><style>.st0{fill:#343434}</style><path class="st0" d="M37.3 0h6.8C54 1.5 63.6 6 70.2 13.8c6.5 7.4 10.1 17.4 9.8 27.3-.2 12.1-6.3 23.8-16 31-6.1 4.7-13.7 7.2-21.3 8h-5.3c-11-.9-21.6-6.2-28.5-14.9C-1.1 53-2.8 34.8 4.9 21c6.3-12 19-20 32.4-21m-3.9 3.6c-14 2.3-26 13.6-29.3 27.3C1.6 41 3.3 52.1 9.2 60.7c3 4.3 6.8 8 11.2 10.8 12 7.6 28.5 7.3 40.2-.8 3.9-2.8 7.4-6.2 10.1-10.1 7.3-10.7 8.3-25.4 2.5-37C66.3 9.1 49.3.4 33.4 3.6z"/><path class="st0" d="M39 8h2v27.2c.9.3 1.9.6 2.9.7 4.9-2.4 9.3-5.6 14.1-7.9.5.5 1.4 1.6 1.9 2.2-4.7 2.9-9.7 5.4-14.4 8.4-.9 2-.9 4.7-3.2 5.8-3.1 1.9-7.5-.7-7.4-4.3-.2-2.6 2-4.1 4-5.2.1-9 0-18 .1-26.9z"/></svg>