<?xml version="1.0" encoding="utf-8"?><svg xmlns="http://www.w3.org/2000/svg" xmlns:xlink="http://www.w3.org/1999/xlink"><symbol viewBox="0 0 8.9 19.3" id="fb-icon" xmlns="http://www.w3.org/2000/svg"><path d="M5.8 19.3V9.8h2.8l.3-3.2H5.7V4.8c0-.9.1-1.3 1.4-1.3h1.8V0H6.1C2.7 0 1.9 1.6 1.9 4.4v2.2H0v3.1h1.9v9.5h3.9"/></symbol><symbol viewBox="0 0 16.1 16.1" id="ig-icon" xmlns="http://www.w3.org/2000/svg"><path d="M14.4 0H1.8C.8 0 0 .8 0 1.8v12.6c0 1 .8 1.8 1.8 1.8h12.6c1 0 1.8-.8 1.8-1.8V1.8c-.1-1-.9-1.8-1.8-1.8zM8.1 5.2c4.2-.3 4.2 6.1 0 5.8-3.9 0-3.9-5.8 0-5.8zm6.3 8.6c0 .3-.3.6-.6.6H2.5c-.3 0-.6-.3-.6-.6v-7h1.4c-.6 2.7 1 5.4 3.7 6 2.7.6 5.4-1 6-3.7.2-.8.2-1.6 0-2.3h1.4v7zm0-9.5c0 .3-.3.6-.6.6h-1.9c-.3 0-.6-.3-.6-.6V2.4c0-.3.3-.6.6-.6h1.9c.3 0 .6.3.6.6v1.9z"/></symbol><symbol viewBox="0 0 24 16" id="lang-toggle-icon" xmlns="http://www.w3.org/2000/svg"><path d="M22.889 4.324H24V2.162h-3.333V0h-2.223v2.162h-3.333v2.162h5.556c-.111.649-.111 1.298-.334 1.946a11.298 11.298 0 01-1 2.703c-.222-.108-.333-.324-.444-.432-.556-.757-1.111-1.514-1.556-2.379 0 0 0-.108-.11-.108l-2 .973.11.108.111.108c.778 1.298 1.667 2.595 2.667 3.676-.222.324-.444.54-.667.865-.444.54-1 .973-1.555 1.513-.222.216-.445.433-.778.54-.111.109-.111.109-.333.217-.111.108-.111.108-.334.216l1.223 1.838c.777-.54 1.555-1.081 2.222-1.73.667-.54 1.222-1.189 1.778-1.946.555.433 1.11.865 1.777 1.082.334.216.667.324 1.112.432l.777-2.054-.666-.324c-.556-.325-1.111-.65-1.667-1.082.667-1.08 1.111-2.378 1.444-3.567.223-.757.334-1.73.445-2.595zM4.778 3.244L0 14.053h2.444l.89-2.162H9l1 2.162h2.444L7.667 3.244h-2.89zM4.333 9.73l1.89-4.325L8.11 9.73H4.333z"/></symbol><symbol viewBox="0 0 93.06 93.06" id="linkedin-icon" xmlns="http://www.w3.org/2000/svg"><path d="M11.185.08C5.004.08.001 5.092 0 11.259c0 6.173 5.003 11.184 11.186 11.184 6.166 0 11.176-5.011 11.176-11.184C22.362 5.091 17.351.08 11.185.08zM1.538 30.926h19.287V92.98H1.538zm68.387-1.543c-9.382 0-15.673 5.144-18.248 10.022h-.258v-8.479H32.92v62.053h19.27V62.281c0-8.093 1.541-15.932 11.575-15.932 9.89 0 10.022 9.256 10.022 16.451v30.178H93.06V58.942c0-16.707-3.605-29.559-23.135-29.559z"/></symbol><symbol viewBox="0 0 97.8 42.5" id="soundcloud-icon" xmlns="http://www.w3.org/2000/svg"><path d="M4.7 22c-.2 0-.4.2-.4.4l-1 8.8 1 8.6c0 .2.2.4.4.4s.4-.2.4-.4l1.1-8.6-1.1-8.8c0-.2-.2-.4-.4-.4zm-3.6 3.4c-.2 0-.4.2-.4.4L0 31.2l.7 5.3c0 .2.2.4.4.4s.4-.2.4-.4l.8-5.3-.8-5.4c0-.2-.2-.4-.4-.4zm7.5-5.1c-.3 0-.5.2-.5.5l-.9 10.4.9 10c0 .3.2.5.5.5s.5-.2.5-.5l1-10-1-10.4c-.1-.3-.3-.5-.5-.5zm3.8-.4c-.3 0-.6.2-.6.6L11 31.2l.9 10.4c0 .3.3.6.6.6s.5-.2.6-.6l1-10.4-1-10.7c-.1-.3-.4-.6-.7-.6zM17 41.7zm0-20.4c0-.4-.3-.6-.7-.6-.4 0-.6.3-.7.6l-.8 9.9.8 10.4c0 .4.3.6.7.6.3 0 .6-.3.7-.6l.9-10.4-.9-9.9zm3.3-7c-.4 0-.7.3-.7.7l-.8 16.2.8 10.4c0 .4.3.7.7.7.4 0 .7-.3.7-.7l.9-10.4-.9-16.1c0-.4-.3-.8-.7-.8zm3.9-3.7c-.4 0-.8.4-.8.8l-.7 19.9.7 10.4c0 .5.4.8.8.8s.8-.4.8-.8l.8-10.4-.8-19.9c0-.4-.4-.8-.8-.8zm4-1.8c-.5 0-.9.4-.9.9l-.7 21.5.7 10.3c0 .5.4.9.9.9s.9-.4.9-.9l.8-10.3-.8-21.5c0-.5-.4-.9-.9-.9zm5.1.2c0-.6-.5-1-1-1s-1 .4-1 1l-.6 22.2.6 10.2c0 .5.4 1 1 1 .5 0 1-.4 1-1l.7-10.2L33.3 9zm0 32.4zm3-32.9c-.6 0-1.1.5-1.1 1.1l-.6 21.7.6 10.1c0 .6.5 1.1 1.1 1.1.6 0 1.1-.5 1.1-1.1l.6-10.2-.6-21.6c0-.6-.5-1.1-1.1-1.1zm4.1.7c-.6 0-1.1.5-1.2 1.2l-.5 20.9.5 10c0 .6.5 1.1 1.2 1.1.6 0 1.1-.5 1.2-1.2l.6-10-.6-20.9c0-.6-.5-1.1-1.2-1.1zm4.8-3.8c-.2-.1-.4-.2-.7-.2-.2 0-.5.1-.7.2-.3.2-.6.6-.6 1v.2l-.5 24.6.5 10c0 .3.1.5.3.7.2.3.6.4.9.4.3 0 .6-.1.9-.4.2-.2.4-.5.4-.9l.1-1 .5-9-.5-24.6c0-.4-.2-.8-.6-1zm.6 35.8zM49.3 3c-.2-.1-.4-.2-.7-.2-.3 0-.6.1-.8.3-.3.2-.5.6-.5 1v.1l-.5 27 .3 5 .3 4.9c0 .7.6 1.3 1.3 1.3.7 0 1.3-.6 1.3-1.3l.6-9.8L50 4.1c0-.4-.3-.9-.7-1.1zm36.4 15.4c-1.6 0-3.2.3-4.7.9C80.1 8.5 71.1 0 60 0c-2.7 0-5.4.5-7.7 1.4-.9.4-1.1.7-1.2 1.4V41c0 .7.6 1.3 1.3 1.4h33.3c6.6 0 12-5.3 12-12 .1-6.6-5.3-12-12-12z"/></symbol><symbol viewBox="0 0 98.6 58.4" id="tripadvisor-icon" xmlns="http://www.w3.org/2000/svg"><path d="M60.4.9c2.8.4 5.4 1.1 8.1 1.9 4.6 1.4 9 3.4 13.2 6 .3.2.7.3 1 .3h14.5c.4 0 .8 0 1.2.1v.2c-.2.3-.5.7-.7 1-1.6 2.5-3 5.2-3.9 8.1-.1.3-.1.6.1.9 4.3 6.2 5.7 13 3.9 20.3-1.6 6.4-5.3 11.4-10.9 15-4 2.5-8.4 3.7-13.1 3.8-2 0-4-.3-5.9-.8-4.7-1.2-8.8-3.6-12.1-7.1-.4-.5-.9-1-1.3-1.5-1.8 2.6-3.5 5.2-5.3 7.9-1.8-2.6-3.5-5.2-5.2-7.8-.1.1-.2.1-.2.1l-.1.1c-4 4.8-9.1 7.7-15.3 8.7-3.4.5-6.8.3-10.2-.6-4.7-1.3-8.8-3.8-12-7.5C3 46.3 1.1 42.1.3 37.4c-.8-4.4.2-8.7.4-9.8.7-3 2.1-5.8 3.8-8.3.1-.2.2-.5.1-.7-.7-2.7-2-5.1-3.5-7.4C.9 10.5.4 10 0 9.4v-.2h15.1c.2 0 .5-.1.6-.2 3.5-2.2 7.2-4 11.1-5.4 2.8-1 5.7-1.8 8.6-2.3C38.2.8 41.1.4 44 .2c7.1-.6 12.7.2 16.4.7zm-6.2 32.7c0 10.9 8.8 19.8 19.7 19.7 10.9 0 19.7-8.7 19.7-19.7 0-11.3-9.2-19.9-20.1-19.6-10.8.3-19.2 8.9-19.3 19.6zM24.7 14C14.1 13.9 4.9 22.7 5 34c.2 10.5 8.8 19.4 19.9 19.3 10.8-.1 19.5-8.9 19.5-19.6 0-10.9-8.8-19.7-19.7-19.7zm1-5.2c6 .4 11.2 2.4 15.7 6.5 4.4 4 7 9.1 8 15 1-5.8 3.5-10.8 7.8-14.8 4.4-4 9.5-6.1 15.4-6.5-7-3.1-14.3-4.4-21.9-4.6-8.7-.2-17 1.1-25 4.4z"/><path d="M73.8 21.2c6.7 0 12.2 5.4 12.2 12.1 0 6.8-5.4 12-11.7 12.2-7.1.3-12.7-5.4-12.7-12.2 0-6.8 5.7-12.2 12.2-12.1zm8 12.2c0-4.4-3.6-8-7.9-8-4.4 0-8 3.5-8 7.9s3.6 8 8 8c4.3.1 7.9-3.5 7.9-7.9zM24.4 21.2c6.7 0 12.2 5.4 12.2 12.2 0 6.8-5.4 11.9-11.6 12.2-7.1.3-12.8-5.3-12.8-12.2 0-7 5.7-12.3 12.2-12.2zm8 12.2c0-4.4-3.6-7.9-8-7.9-4.3 0-7.9 3.6-7.9 8s3.6 8 8 8c4.3-.1 7.9-3.7 7.9-8.1z"/><path d="M73.8 29.4c2.2 0 4.1 1.8 4 4 0 2.2-1.8 4-4 4-2.3 0-4.1-1.8-4.1-4 .1-2.3 1.8-4 4.1-4zm-49.4-.1c2.3 0 4.1 1.8 4.1 4.1 0 2.2-1.8 4.1-4.1 4.1s-4.1-1.8-4.1-4.1 1.8-4.1 4.1-4.1z"/></symbol><symbol viewBox="0 0 18.1 14.8" id="tw-icon" xmlns="http://www.w3.org/2000/svg"><path d="M18.1 1.8c-.7.3-1.4.5-2.1.6.8-.5 1.3-1.2 1.6-2.1-.7.4-1.5.7-2.4.9C13.8-.3 11.5-.4 10 1c-1 .9-1.4 2.3-1.1 3.6C5.9 4.4 3.1 3 1.3.7c-1 1.7-.5 3.9 1.1 5-.6 0-1.2-.2-1.7-.5v.1c0 1.8 1.3 3.3 3 3.6-.3.1-.6.1-1 .1-.2 0-.5 0-.7-.1.5 1.5 1.9 2.6 3.5 2.6-1.3 1-2.9 1.6-4.6 1.6-.3 0-.6 0-.9-.1 4.9 3.1 11.4 1.7 14.6-3.2 1.1-1.7 1.7-3.7 1.7-5.7v-.4c.7-.5 1.3-1.2 1.8-1.9z"/></symbol><symbol viewBox="0 0 96.5 54.6" id="vk-icon" xmlns="http://www.w3.org/2000/svg"><path d="M92.5 44.2c-2.9-3.4-6.3-6.4-9.5-9.5-2.9-2.8-3.1-4.4-.7-7.7 2.5-3.5 5.3-7 7.8-10.5 2.4-3.3 4.8-6.6 6.1-10.5.8-2.5.1-3.6-2.5-4.1-.4-.1-.9-.1-1.4-.1H77c-1.9 0-2.9.8-3.6 2.5-.9 2.3-1.8 4.5-2.9 6.7-2.4 4.9-5.1 9.7-8.9 13.7-.8.9-1.8 2-3.2 1.6-1.8-.6-2.3-3.5-2.2-4.5V4.2c-.3-2.5-.9-3.6-3.4-4.1L36.9 0c-2.1 0-3.2.8-4.3 2.1-.7.8-.9 1.3.5 1.5 2.6.5 4.1 2.2 4.5 4.8.6 4.2.6 8.5.2 12.7-.1 1.2-.3 2.5-.8 3.6-.8 1.8-2 2.2-3.6 1.1-1.5-1-2.5-2.4-3.5-3.9-3.9-5.2-6.9-11-9.4-17.1-.7-1.8-2-2.8-3.8-2.9-4.6-.1-9.2-.1-13.8 0C.2 2-.6 3.3.5 5.8c5 11.1 10.6 21.9 17.8 31.8 3.7 5.1 8 9.5 13.5 12.7 6.3 3.6 13 4.7 20.1 4.3 3.3-.2 4.3-1 4.5-4.3.1-2.3.4-4.5 1.5-6.6 1.1-2 2.8-2.4 4.7-1.1 1 .6 1.8 1.4 2.5 2.3 1.9 2 3.7 4.2 5.6 6.1 2.4 2.5 5.3 3.9 9 3.6h14.1c2.3-.1 3.4-2.9 2.1-5.5-.9-1.8-2.1-3.3-3.4-4.9z"/></symbol><symbol viewBox="0 0 98 63.3" id="wikipedia-icon" xmlns="http://www.w3.org/2000/svg"><path d="M98 .1L78.4 0v2.1c1.7 0 5.9.8 7.3 4.3L66.9 49.8c-.9-2.1-9.6-21.5-10.6-24L65.4 7c1.9-2.9 5.5-4.7 8.9-4.8v-2H55.5c0 .5 0 1.5-.1 2.1 5.3.1 7.2 1.3 5.9 4.5-2.1 4.8-6.5 13.8-7.4 15.5-2.7-5.6-4.4-10-7.3-16.1-1.3-2.8 1.5-3.9 4.5-4v-2L29.2 0v2.1c3 0 7 .4 8.6 3 2.1 4.1 9 20.2 11.1 24.5-2.7 5.2-9.2 17.3-11.5 21.9C34 44.2 21.7 14.9 18.2 7.4c-1.3-3.2 3.7-5.1 6.6-5.2V.1L0 0v2.2c4 0 9.9 6.6 11.6 10.7 7.2 16.8 14.7 33.5 21.9 50.3 0 0 2.3.1 2.3 0C40.5 53.5 46 43.4 51 33.6l12.6 29.6h2.1c8-18.2 19.9-46.1 23.8-54.9 1.6-3.8 4.2-6.1 8.5-6.2v-2z"/></symbol><symbol viewBox="0 0 76.5 90.7" id="youtube-icon" xmlns="http://www.w3.org/2000/svg"><path d="M75.2 45.9c-.9-4.1-4.3-7.1-8.3-7.5-9.5-1.1-19.1-1.1-28.7-1.1-9.6 0-19.2 0-28.7 1.1-4 .4-7.3 3.5-8.3 7.5C0 51.7 0 58 0 64s0 12.3 1.3 18.1c.9 4.1 4.3 7.1 8.3 7.5 9.5 1.1 19.1 1.1 28.7 1.1 9.6 0 19.2 0 28.7-1.1 4-.4 7.3-3.5 8.3-7.5 1.3-5.8 1.3-12.1 1.3-18.1-.1-6 0-12.3-1.4-18.1zm-53.4 4.5h-5.5v29.4h-5.1V50.4H5.7v-4.8h16.1v4.8zm14 29.4h-4.6V77c-1.8 2.1-3.6 3.1-5.3 3.1-1.5 0-2.5-.6-3-1.9-.3-.8-.4-2-.4-3.8V54.3h4.6v20.6c.1.7.5 1.1 1.1 1.1.9 0 1.9-.7 2.9-2.2V54.3h4.6l.1 25.5zm17.6-7.6c0 2.4-.2 4.1-.5 5.1-.6 1.9-1.9 2.9-3.7 2.9-1.6 0-3.2-.9-4.8-2.8v2.5h-4.6V45.6h4.6v11.2c1.5-1.8 3.1-2.8 4.8-2.8 1.8 0 3.1 1 3.7 2.9.3 1 .5 2.7.5 5.1v10.2zm17.4-4.3h-9.3v4.5c0 2.4.8 3.5 2.4 3.5 1.1 0 1.8-.6 2.1-1.9 0-.3.1-1.3.1-3.1h4.7v.7c0 1.5-.1 2.5-.1 3-.2 1-.5 2-1.1 2.8-1.3 1.9-3.2 2.8-5.6 2.8-2.4 0-4.3-.9-5.6-2.6-1-1.3-1.5-3.3-1.5-6v-8.9c0-2.7.4-4.7 1.4-6 1.3-1.7 3.2-2.6 5.5-2.6s4.2.9 5.5 2.6c1 1.3 1.4 3.3 1.4 6l.1 5.2z"/><path d="M63.9 58.2c-1.5 0-2.3 1.2-2.3 3.5v2.4h4.6v-2.4c0-2.4-.8-3.5-2.3-3.5zm-17.2 0c-.8 0-1.5.4-2.3 1.1v15.6c.8.8 1.5 1.1 2.3 1.1 1.3 0 2-1.1 2-3.4v-11c.1-2.3-.6-3.4-2-3.4zM49.3 35c1.7 0 3.5-1 5.3-3.2v2.8h4.7V8.8h-4.7v19.7c-1 1.5-2 2.2-3 2.2-.6 0-1-.4-1.1-1.1-.1-.2-.1-.7-.1-1.8v-19h-4.7v20.4c0 1.8.2 3.1.4 3.8.7 1.4 1.7 2 3.2 2zM16.8 20.6v14H22v-14L28.2 0H23l-3.5 13.6L15.7 0h-5.5l3.3 9.6c1.8 4.9 2.8 8.5 3.3 11zM35.2 35c2.3 0 4.2-.9 5.5-2.6 1-1.3 1.5-3.3 1.5-6.1v-9c0-2.8-.5-4.8-1.5-6.1-1.3-1.8-3.1-2.6-5.5-2.6-2.3 0-4.1.9-5.4 2.6-1 1.3-1.5 3.3-1.5 6.1v9c0 2.7.5 4.8 1.5 6.1 1.2 1.7 3 2.6 5.4 2.6zm-2.3-18.7c0-2.4.7-3.6 2.2-3.6s2.2 1.2 2.2 3.6v10.9c0 2.4-.7 3.6-2.2 3.6s-2.2-1.2-2.2-3.6V16.3z"/></symbol><symbol viewBox="0 0 96.9 67.5" id="youtube-play-button-icon" xmlns="http://www.w3.org/2000/svg"><path d="M95.2 10.9c-1.2-5.2-5.4-9-10.5-9.5C72.7 0 60.6 0 48.5 0 36.3 0 24.2 0 12.2 1.3c-5.1.6-9.3 4.4-10.5 9.6C0 18.2 0 26.2 0 33.8s0 15.6 1.7 22.9c1.2 5.2 5.4 9 10.5 9.5 12 1.3 24.2 1.3 36.3 1.3 12.1 0 24.3 0 36.3-1.3 5.1-.6 9.3-4.4 10.5-9.5C97 49.4 97 41.4 97 33.8c-.1-7.6-.1-15.6-1.8-22.9zM35.9 48.8v-32c10.3 5.4 20.5 10.7 30.8 16.1-10.3 5.3-20.5 10.6-30.8 15.9z"/></symbol></svg>